<svg version="1" xmlns="http://www.w3.org/2000/svg" width="933.333" height="933.333" viewBox="0 0 700.000000 700.000000"><path d="M565.5 4C554 6.1 424.1 29 277 55 129.9 80.9 8 102.6 6.2 103.1c-2.2.7-3.8 2.2-4.8 4.2-1.4 3 1.1 18 49.6 293.2C79.1 560 102.6 692 103.1 693.8c.7 2.2 2.2 3.8 4.2 4.8 3 1.4 19.2-1.4 292.7-49.6 159.2-28 291.2-51.5 293.3-52 2.7-.8 4.2-2 5.3-4.3 1.4-3.1-.8-16.4-49.6-293.2C620.9 140 597.4 8 596.9 6.2c-1.1-3.3-5.3-6.3-8.6-6.1-1 .1-11.2 1.8-22.8 3.9zm-79.8 151.1c1.8 1.1 4 3.4 4.9 5.1 1.5 3 56.4 312 56.4 317.8 0 4.6-2.7 9.7-6.4 11.9-2.4 1.5-41.1 8.7-159.2 29.5-85.8 15.2-157.7 27.6-159.8 27.6-4.7 0-9.1-2.5-11.7-6.7-1.5-2.4-8.6-40.8-29.4-158.8C165.4 295.9 153 224 153 221.7c0-5.2 2.8-10.1 7.2-12.3 3.1-1.6 51-10.3 237.3-42.9 39.6-6.9 72.7-12.7 73.5-12.9 4.8-1.1 11.5-.5 14.7 1.5z"/><path d="M336.9 240.4c-5.1 1.8-10.7 5.3-15.6 9.7-2.3 2.1-7.3 5.4-11.1 7.3-9.4 4.7-20.2 12.4-21.1 15-1.2 3.2.5 7.6 4.6 11.8l3.6 3.7-1.8 10.3c-.9 5.7-3.5 18.3-5.7 28.1-3.6 16.3-3.8 17.9-2.4 19.9 2.6 3.7 2 7.6-1.8 11.1-2.9 2.7-3.5 4.2-4.1 9.2-.4 3.3-1.5 10.1-2.5 15.2-.9 5.1-1.3 9.8-.9 10.4.4.7.4 2-.1 2.9-1.2 2.3-12.7 7.3-15.2 6.6-3-.7-14.7 2.2-18 4.6-2.5 1.7-2.8 2.6-2.7 6.1.2 2.3.8 5.9 1.6 8.1.7 2.1 1.3 6 1.3 8.7 0 2.6.5 6 1.2 7.4 1.1 2.4 1.6 2.6 5.7 2.3 2.6-.3 6.7-1.1 9.3-1.8 2.6-.8 5-1.1 5.3-.8.3.3-.4 5.5-1.6 11.5-1.2 6.1-1.9 12.2-1.5 13.6 1.4 5.8 6 7.2 13.1 3.8 4.2-2 15.9-5.1 19.2-5.1 1.1 0 2.9-1 4.1-2.3 1.7-1.8 2.3-4.3 3.1-14.4.6-6.7 1.5-13.2 2-14.5.7-1.8 2.6-2.9 8.2-4.7 4.1-1.3 7.8-2.8 8.4-3.2.5-.5 1.5-.9 2.3-.9.8 0 2.7-1.1 4.2-2.3 2.4-2.1 4.2-2.5 14.3-3 8.1-.5 15.3-1.7 25-4.2 7.4-1.9 14.4-3.5 15.5-3.5 1.3 0 4.9 3.4 10.1 9.4 9.5 11 22.2 23.5 25.8 25.4 1.5.9 3.8 1.1 5.9.7 3.7-.6 13.5-5.6 19.9-10 2.2-1.5 6.5-4 9.6-5.5 4.5-2.3 5.7-3.5 6.2-5.9.5-2.3 1.3-3.2 3.4-3.6 7.2-1.5 10.1-2.7 13.6-5.5 2-1.8 3.7-3.8 3.7-4.7 0-2.4-10-16.8-20.1-29-7.2-8.7-10.1-11.4-14.8-13.8-8.1-4.2-8.9-5-9.6-10.3-1.1-8.3-1.5-9.3-6.2-14-2.5-2.6-7.9-9.2-11.9-14.7-21.5-29-23.6-31.5-31.6-36.8-5.5-3.7-8.8-8.4-8.8-12.4 0-1-3-5.5-6.7-9.9-3.8-4.4-9.1-11.1-12-14.9-2.8-3.9-6.4-8-8-9.1-3.8-2.8-9.9-3.7-14.4-2zm-23.2 39.7l3.1 5-2 6.2c-4.1 12.6-4.4 13.1-6.8 10.2-.9-1.1-.9-2.9.1-8.5 1.2-6.7 1.1-7.2-.9-10-3.4-4.6-2.9-8 1.2-8 1.5 0 3.1 1.6 5.3 5.1zm-7 34.4c1.3 2.8 1.4 3.7.3 5-2.6 3.2-6 .5-6-4.8 0-4.9 3.4-5.1 5.7-.2zm93.3 4.6c1.7 1.7 3.7 4.5 4.4 6.3.7 1.7 3.7 5.7 6.5 8.9 5.8 6.6 6.7 10.3 2.6 11.3-3.6.9-5.8-1.4-10.6-11.3-3.4-6.9-4.8-8.7-8.3-10.6-4.8-2.6-5.6-4.9-2.4-6.5 3.5-1.7 4.4-1.4 7.8 1.9zm-70.5 11.7c2.3 2.6 5.4 6.5 7 8.7 1.6 2.2 3.4 4.4 4 5 .6.5 3.2 3.8 5.9 7.2 2.7 3.5 5.5 6.3 6.3 6.3 2.7 0 6.3 4.7 6.3 8.3 0 1.9.9 4.6 2 6 1.1 1.4 2 2.7 2 3 0 1.2-19.9 7-34.5 10.1l-15.7 3.3.6-5.6c.4-3.1 1.1-7.6 1.6-10.1 2.7-13.1 3.2-18.7 2.1-20.8-.6-1.1-1.1-3.9-1.1-6.2 0-3.7.3-4.2 3.4-5.5 3.5-1.5 4.6-4.1 4.6-11.1 0-1.9.3-3.4.8-3.4.4 0 2.5 2.1 4.7 4.8zm69.2 61.1c3 4.5 3 8.7.1 9.7-1.8.5-3-.2-6.5-4.1l-4.3-4.7-3.8 1.5c-6.2 2.4-11.2 3-11.2 1.4 0-.8.6-1.9 1.3-2.5 1.5-1.2 17.6-5.1 20.2-4.9 1 .1 3 1.7 4.2 3.6zm65.1 7.3c2 3.8 2.1 4.3.7 6.5-1.9 2.8-3.9 2.9-6.5.3-2.2-2.2-2.7-7.9-.8-9.8 2.2-2.2 4.3-1.2 6.6 3zM260 415.5c1 1.2 1 2.1.1 4.1-1 2.2-1.6 2.5-3.9 1.9-1.5-.4-3.3-1.1-3.9-1.7-1.4-1.1-1.7-4-.6-5.1 1.2-1.3 7.1-.7 8.3.8z"/><path d="M321.7 366.1c-.2.8-.9 3-1.6 4.9-1.6 4.6-2.1 10.9-.9 11.6.5.3 3.2 0 6.1-.6 9.8-2.3 14.2-6.8 6.2-6.3-4.8.3-6.5-1-6.5-5.2 0-3.5-2.7-6.9-3.3-4.4zM357.8 239.6c-1.8 1.7 8 12.3 10.2 10.9 1.6-1 1.2-2.3-2-7.1-2.2-3-3.8-4.4-5.4-4.4-1.2 0-2.5.3-2.8.6zM373.2 257.9c-2.2.6-2 .9 3.3 7.1 3.1 3.6 7.2 9.6 9.2 13.4 2 3.7 4.6 7.2 5.7 7.8 1.2.5 3.1 2.4 4.4 4.1 3.5 5.2 8.9 10 10.2 9.2 2.4-1.5-.1-6.9-6.8-14.9-3.7-4.4-8.1-9.9-9.7-12.1-1.6-2.2-5.4-6.5-8.5-9.6-4.4-4.5-6-5.5-7.8-5zM277.6 277.6c-1.2 3.1-.6 4.9 3.1 8.6 3.5 3.6 3.6 3.8 2.5 7.6-1.8 5.9-1.5 9 .9 10.2 1.1.7 2.2 1 2.3.8.1-.2 1-3.2 2-6.7l1.7-6.5-4.6-6.7c-5.6-8.2-7-9.6-7.9-7.3zM271.3 380.1c-1.3 2.5-2.3 5-2.3 5.5s-1.7 2.3-3.7 4.1c-3.1 2.5-3.6 3.4-2.5 4.4 1 1.1 2 1.1 5.5-.1 4.1-1.5 4.2-1.7 5-7 .4-3 .6-6.9.5-8.5-.3-3-.3-3-2.5 1.6zM465.3 424.2c-1.2 1.3-2.3 3.4-2.5 4.8-.2 2 .1 2.4 1.6 2.2 2.9-.5 6.4-3.1 7.1-5.3 1.4-4.2-2.8-5.3-6.2-1.7zM317.5 429c-2.7 1.6-5.4 3.6-6.1 4.4-1.5 2.1-2.5 12.2-1.6 16.4.6 3 .9 3.2 2.5 2 1.2-.9 2.1-3.4 2.6-7 .8-5.9 2.4-9 7.2-14.1 5.2-5.4 3.3-6.1-4.6-1.7zM235.6 432.9c-1.3 1.5-1.6 3-1.1 7.2 1.3 11.4 2.3 12.4 11.1 10.3 4.4-1 5.6-1 7.3.3 3.1 2.1 6.5 1.3 6.9-1.7.2-1.4-.4-3.4-1.2-4.5-1.3-1.8-1.7-1.9-4.8-.6-1.8.7-5.1 1.6-7.2 1.9-5 .6-6.6-1.4-6.6-7.9 0-5.7-1.9-7.8-4.4-5zM444.3 439.7c-8.8 6-20.5 11.3-24.9 11.3-4.6 0-6.8-1.2-13.2-7.2-4.3-4.1-5.5-4.8-6.7-3.8-2.3 1.9-1.9 2.8 3.9 8.5 7.6 7.6 9.5 8.6 16.6 8.9 6 .2 6.5.1 11.4-3.9 2.8-2.2 9-6.9 13.9-10.4 4.8-3.5 8.7-6.7 8.7-7.2 0-1.9-3.2-.7-9.7 3.8z"/></svg>