<?xml version="1.0" encoding="UTF-8" standalone="no"?><!-- Generator: Gravit.io --><svg xmlns="http://www.w3.org/2000/svg" xmlns:xlink="http://www.w3.org/1999/xlink" style="isolation:isolate" viewBox="0 0 500 500" width="500pt" height="500pt"><defs><clipPath id="_clipPath_7jOtl9GbN7akht6qnL3jbgPuskIoeq9v"><rect width="500" height="500"/></clipPath></defs><g clip-path="url(#_clipPath_7jOtl9GbN7akht6qnL3jbgPuskIoeq9v)"><rect width="500" height="500" style="fill:rgb(33,131,128)" fill-opacity="0"/><g><path d=" M 5.373 73.099 L 419.371 0.1 C 422.904 -0.523 426.278 1.839 426.901 5.373 L 499.9 419.371 C 500.523 422.904 498.161 426.278 494.627 426.901 L 80.629 499.9 C 77.096 500.523 73.722 498.161 73.099 494.627 L 0.1 80.629 C -0.523 77.096 1.839 73.722 5.373 73.099 Z " fill="rgb(143,45,86)"/><linearGradient id="_lgradient_0" x1="1.1102230246251565e-16" y1="1.1102230246251565e-16" x2="1.0000000000000004" y2="0.9999999999999998" gradientTransform="matrix(335.061,-59.08,59.08,335.061,52.93,112.01)" gradientUnits="userSpaceOnUse"><stop offset="0%" stop-opacity="1" style="stop-color:rgb(239,45,115)"/><stop offset="100%" stop-opacity="1" style="stop-color:rgb(216,17,89)"/></linearGradient><path d=" M 62.981 110.237 L 377.938 54.702 C 383.486 53.724 388.784 57.434 389.763 62.981 L 445.298 377.938 C 446.276 383.486 442.566 388.784 437.019 389.763 L 122.062 445.298 C 116.514 446.276 111.216 442.566 110.237 437.019 L 54.702 122.062 C 53.724 116.514 57.434 111.216 62.981 110.237 Z " fill="url(#_lgradient_0)"/><linearGradient id="_lgradient_1" x1="1.1102230246251565e-16" y1="1.1102230246251565e-16" x2="1.0000000000000004" y2="0.9999999999999998" gradientTransform="matrix(242.418,-42.745,42.745,242.418,107.419,150.164)" gradientUnits="userSpaceOnUse"><stop offset="0%" stop-opacity="1" style="stop-color:rgb(255,206,117)"/><stop offset="98.26086956521739%" stop-opacity="1" style="stop-color:rgb(255,188,66)"/></linearGradient><path d=" M 117.82 148.33 L 339.435 109.253 C 345.176 108.241 350.658 112.079 351.67 117.82 L 390.747 339.435 C 391.759 345.176 387.921 350.658 382.18 351.67 L 160.565 390.747 C 154.824 391.759 149.342 387.921 148.33 382.18 L 109.253 160.565 C 108.241 154.824 112.079 149.342 117.82 148.33 Z " fill="url(#_lgradient_1)"/><path d=" M 343.388 289.605 L 343.388 289.605 L 343.388 289.605 Q 343.687 290.274 343.399 290.685 L 343.399 290.685 L 343.399 290.685 Q 343.111 291.096 343.584 291.734 L 343.584 291.734 L 343.584 291.734 Q 341.711 294.408 337.556 296.403 L 337.556 296.403 L 337.556 296.403 Q 336.249 297.174 334.501 297.483 L 334.501 297.483 L 334.501 297.483 Q 333.451 297.668 332.371 297.678 L 332.371 297.678 L 332.371 297.678 Q 331.291 297.688 330.448 298.017 L 330.448 298.017 L 330.448 298.017 Q 329.142 298.788 328.745 300.12 L 328.745 300.12 L 328.745 300.12 Q 328.349 301.452 328.246 302.913 L 328.246 302.913 L 328.246 302.913 Q 326.477 304.126 324.687 304.712 L 324.687 304.712 L 324.687 304.712 Q 322.897 305.298 321.447 306.275 L 321.447 306.275 L 321.447 306.275 Q 320.809 306.748 320.418 307.087 L 320.418 307.087 L 320.418 307.087 Q 320.027 307.427 319.215 307.931 L 319.215 307.931 L 319.215 307.931 Q 318.402 308.435 317.615 308.573 L 317.615 308.573 L 317.615 308.573 Q 316.828 308.712 316.314 309.885 L 316.314 309.885 L 316.314 309.885 Q 314.133 310.81 312.03 312.172 L 312.03 312.172 L 312.03 312.172 Q 309.926 313.535 307.761 314.548 L 307.761 314.548 L 307.761 314.548 Q 305.596 315.561 303.338 316.049 L 303.338 316.049 L 303.338 316.049 Q 301.08 316.537 298.766 315.683 L 298.766 315.683 L 298.766 315.683 Q 295.177 312.71 293.362 310.596 L 293.362 310.596 L 293.362 310.596 Q 291.546 308.482 289.222 306.548 L 289.222 306.548 L 289.222 306.548 Q 288.369 305.797 287.443 305.149 L 287.443 305.149 L 287.443 305.149 Q 286.517 304.501 286.013 303.688 L 286.013 303.688 L 286.013 303.688 Q 284.358 301.456 283.473 300.53 L 283.473 300.53 L 283.473 300.53 Q 282.589 299.605 281.674 298.504 L 281.674 298.504 L 281.674 298.504 Q 279.699 296.508 278.131 294.261 L 278.131 294.261 L 278.131 294.261 Q 276.563 292.013 274.444 290.223 L 274.444 290.223 L 274.444 290.223 Q 268.324 291.302 262.677 293.019 L 262.677 293.019 L 262.677 293.019 Q 257.03 294.736 251.609 295.692 L 251.609 295.692 L 251.609 295.692 Q 250.735 295.846 249.917 295.81 L 249.917 295.81 L 249.917 295.81 Q 249.1 295.774 248.194 295.753 L 248.194 295.753 L 248.194 295.753 Q 247.32 295.907 246.477 296.236 L 246.477 296.236 L 246.477 296.236 Q 245.633 296.565 244.728 296.544 L 244.728 296.544 L 244.728 296.544 Q 242.393 296.596 241.529 296.297 L 241.529 296.297 L 241.529 296.297 Q 240.665 295.999 239.585 296.009 L 239.585 296.009 L 239.585 296.009 Q 237.251 296.06 235.481 297.273 L 235.481 297.273 L 235.481 297.273 Q 233.712 298.487 232.323 299.814 L 232.323 299.814 L 232.323 299.814 Q 231.182 299.474 230.559 300.034 L 230.559 300.034 L 230.559 300.034 Q 229.937 300.595 228.949 301.13 L 228.949 301.13 L 228.949 301.13 Q 227.787 301.695 226.301 301.957 L 226.301 301.957 L 226.301 301.957 Q 224.814 302.219 223.477 302.816 L 223.477 302.816 L 223.477 302.816 Q 222.14 303.412 220.582 303.777 L 220.582 303.777 L 220.582 303.777 Q 219.023 304.142 218.098 305.026 L 218.098 305.026 L 218.098 305.026 Q 217.809 305.438 217.46 307.032 L 217.46 307.032 L 217.46 307.032 Q 217.11 308.626 216.852 309.212 L 216.852 309.212 L 216.852 309.212 Q 216.77 309.768 216.863 310.292 L 216.863 310.292 L 216.863 310.292 Q 216.955 310.817 216.698 311.403 L 216.698 311.403 L 216.698 311.403 Q 216.173 314.561 216.105 318.269 L 216.105 318.269 L 216.105 318.269 Q 216.038 321.977 215.513 325.134 L 215.513 325.134 L 215.513 325.134 Q 214.762 325.988 214.289 326.883 L 214.289 326.883 L 214.289 326.883 Q 213.816 327.777 212.972 328.106 L 212.972 328.106 L 212.972 328.106 Q 211.81 328.672 210.015 328.718 L 210.015 328.718 L 210.015 328.718 Q 208.22 328.764 206.852 329.186 L 206.852 329.186 L 206.852 329.186 Q 206.183 329.484 205.515 329.782 L 205.515 329.782 L 205.515 329.782 Q 204.846 330.08 203.972 330.234 L 203.972 330.234 L 203.972 330.234 Q 202.429 330.687 200.737 330.805 L 200.737 330.805 L 200.737 330.805 Q 199.045 330.923 197.883 331.488 L 197.883 331.488 L 197.883 331.488 Q 197.214 331.787 196.448 332.553 L 196.448 332.553 L 196.448 332.553 Q 195.681 333.319 194.457 333.535 L 194.457 333.535 L 194.457 333.535 Q 193.089 333.956 191.567 333.503 L 191.567 333.503 L 191.567 333.503 Q 190.631 333.308 189.675 332.485 L 189.675 332.485 L 189.675 332.485 Q 188.718 331.662 188.297 330.294 L 188.297 330.294 L 188.297 330.294 Q 188.081 329.07 188.122 327.26 L 188.122 327.26 L 188.122 327.26 Q 188.164 325.449 188.411 323.783 L 188.411 323.783 L 188.411 323.783 Q 188.658 322.117 189.08 320.42 L 189.08 320.42 L 189.08 320.42 Q 189.615 318.342 190.073 315.827 L 190.073 315.827 L 190.073 315.827 Q 190.531 313.313 191.035 311.06 L 191.035 311.06 L 191.035 311.06 Q 189.4 310.988 187.523 311.589 L 187.523 311.589 L 187.523 311.589 Q 185.646 312.191 183.784 312.88 L 183.784 312.88 L 183.784 312.88 Q 182.94 313.209 181.804 313.409 L 181.804 313.409 L 181.804 313.409 Q 180.667 313.61 179.793 313.764 L 179.793 313.764 L 179.793 313.764 Q 177.139 314.051 176.399 312.92 L 176.399 312.92 L 176.399 312.92 Q 175.658 311.788 175.293 310.23 L 175.293 310.23 L 175.293 310.23 Q 174.928 308.672 174.913 307.052 L 174.913 307.052 L 174.913 307.052 Q 174.898 305.432 175.268 304.465 L 175.268 304.465 L 175.268 304.465 Q 174.806 301.842 173.911 299.836 L 173.911 299.836 L 173.911 299.836 Q 173.819 299.312 173.552 298.818 L 173.552 298.818 L 173.552 298.818 Q 173.284 298.324 173.222 297.974 L 173.222 297.974 L 173.222 297.974 Q 173.49 295.403 173.156 294.02 L 173.156 294.02 L 173.156 294.02 Q 172.822 292.636 173.193 291.669 L 173.193 291.669 L 173.193 291.669 Q 173.563 290.703 174.345 290.024 L 174.345 290.024 L 174.345 290.024 Q 175.25 290.045 175.872 289.484 L 175.872 289.484 L 175.872 289.484 Q 176.495 288.924 177.338 288.595 L 177.338 288.595 L 177.338 288.595 Q 179.55 287.844 181.766 287.633 L 181.766 287.633 L 181.766 287.633 Q 183.983 287.423 186.133 286.323 L 186.133 286.323 L 186.133 286.323 Q 188.57 287.876 191.882 286.21 L 191.882 286.21 L 191.882 286.21 Q 192.376 285.943 193.045 285.645 L 193.045 285.645 L 193.045 285.645 Q 193.713 285.347 194.382 285.048 L 194.382 285.048 L 194.382 285.048 Q 196.007 284.041 196.676 283.742 L 196.676 283.742 L 196.676 283.742 Q 198.918 283.167 199.078 281.516 L 199.078 281.516 L 199.078 281.516 Q 199.237 279.865 198.178 278.97 L 198.178 278.97 L 198.178 278.97 Q 198.991 275.401 199.542 271.878 L 199.542 271.878 L 199.542 271.878 Q 200.093 268.356 200.906 264.787 L 200.906 264.787 L 200.906 264.787 Q 200.999 262.246 201.4 259.922 L 201.4 259.922 L 201.4 259.922 Q 201.801 257.597 203.129 255.921 L 203.129 255.921 L 203.129 255.921 Q 203.705 255.098 204.867 254.533 L 204.867 254.533 L 204.867 254.533 Q 206.029 253.967 206.4 253 L 206.4 253 L 206.4 253 Q 206.77 252.033 206.565 250.357 L 206.565 250.357 L 206.565 250.357 Q 206.359 248.68 205.855 247.868 L 205.855 247.868 L 205.855 247.868 Q 205.619 247.549 205.089 247.101 L 205.089 247.101 L 205.089 247.101 Q 204.56 246.654 204.467 246.129 L 204.467 246.129 L 204.467 246.129 Q 204.2 245.635 204.442 244.962 L 204.442 244.962 L 204.442 244.962 Q 204.683 244.288 204.879 243.352 L 204.879 243.352 L 204.879 243.352 Q 206.114 238.086 207.344 232.28 L 207.344 232.28 L 207.344 232.28 Q 208.574 226.474 209.922 220.827 L 209.922 220.827 L 209.922 220.827 Q 210.118 216.826 211.018 213.242 L 211.018 213.242 L 211.018 213.242 Q 211.919 209.657 212.321 205.8 L 212.321 205.8 L 212.321 205.8 Q 210.932 204.062 208.618 201.675 L 208.618 201.675 L 208.618 201.675 Q 206.304 199.289 206.13 196.255 L 206.13 196.255 L 206.13 196.255 Q 206.089 195 206.593 194.28 L 206.593 194.28 L 206.593 194.28 Q 207.097 193.56 207.817 192.531 L 207.817 192.531 L 207.817 192.531 Q 209.062 191.41 210.384 190.727 L 210.384 190.727 L 210.384 190.727 Q 211.706 190.043 212.981 189.097 L 212.981 189.097 L 212.981 189.097 Q 213.794 188.593 214.488 187.93 L 214.488 187.93 L 214.488 187.93 Q 215.183 187.266 215.995 186.762 L 215.995 186.762 L 215.995 186.762 Q 216.808 186.258 217.579 186.032 L 217.579 186.032 L 217.579 186.032 Q 218.351 185.806 218.958 185.158 L 218.958 185.158 L 218.958 185.158 Q 225.242 182.968 229.728 178.752 L 229.728 178.752 L 229.728 178.752 Q 230.19 178.31 230.535 177.708 L 230.535 177.708 L 230.535 177.708 Q 230.88 177.106 231.692 176.602 L 231.692 176.602 L 231.692 176.602 Q 232.505 176.098 233.565 175.461 L 233.565 175.461 L 233.565 175.461 Q 234.624 174.823 235.93 174.052 L 235.93 174.052 L 235.93 174.052 Q 238.337 172.366 241.336 171.476 L 241.336 171.476 L 241.336 171.476 Q 244.334 170.587 247.204 171.523 L 247.204 171.523 L 247.204 171.523 Q 248.191 170.989 248.633 171.452 L 248.633 171.452 L 248.633 171.452 Q 249.076 171.915 250.104 172.635 L 250.104 172.635 L 250.104 172.635 Q 250.577 173.272 251.163 173.53 L 251.163 173.53 L 251.163 173.53 Q 251.75 173.787 252.428 174.569 L 252.428 174.569 L 252.428 174.569 Q 254.814 176.852 256.917 180.088 L 256.917 180.088 L 256.917 180.088 Q 259.02 183.323 261.468 185.956 L 261.468 185.956 L 261.468 185.956 Q 262.147 186.738 262.753 187.623 L 262.753 187.623 L 262.753 187.623 Q 263.36 188.507 264.214 189.258 L 264.214 189.258 L 264.214 189.258 Q 264.718 190.071 265.263 190.606 L 265.263 190.606 L 265.263 190.606 Q 265.808 191.141 266.486 191.922 L 266.486 191.922 L 266.486 191.922 Q 266.929 192.385 267.268 192.776 L 267.268 192.776 L 267.268 192.776 Q 267.607 193.167 267.844 193.486 L 267.844 193.486 L 267.844 193.486 Q 268.348 194.299 269.011 194.993 L 269.011 194.993 L 269.011 194.993 Q 269.674 195.687 269.942 196.181 L 269.942 196.181 L 269.942 196.181 Q 270.271 197.025 270.132 197.77 L 270.132 197.77 L 270.132 197.77 Q 269.993 198.516 270.116 199.215 L 270.116 199.215 L 270.116 199.215 Q 270.959 201.952 272.903 203.772 L 272.903 203.772 L 272.903 203.772 Q 274.847 205.593 276.667 206.715 L 276.667 206.715 L 276.667 206.715 Q 277.284 207.147 278.076 207.548 L 278.076 207.548 L 278.076 207.548 Q 278.868 207.949 279.66 208.35 L 279.66 208.35 L 279.66 208.35 Q 280.277 208.782 280.663 209.436 L 280.663 209.436 L 280.663 209.436 Q 281.048 210.089 281.984 210.284 L 281.984 210.284 L 281.984 210.284 Q 283.105 211.529 284.026 213.17 L 284.026 213.17 L 284.026 213.17 Q 284.946 214.81 286.211 215.849 L 286.211 215.849 L 286.211 215.849 Q 287.486 217.968 289.255 219.82 L 289.255 219.82 L 289.255 219.82 Q 291.024 221.672 292.474 223.76 L 292.474 223.76 L 292.474 223.76 Q 292.978 224.573 293.481 225.385 L 293.481 225.385 L 293.481 225.385 Q 293.985 226.198 294.489 227.01 L 294.489 227.01 L 294.489 227.01 Q 296.68 230.23 299.22 233.388 L 299.22 233.388 L 299.22 233.388 Q 301.76 236.546 304.125 239.735 L 304.125 239.735 L 304.125 239.735 Q 305.123 240.28 305.627 241.093 L 305.627 241.093 L 305.627 241.093 Q 306.13 241.906 306.809 242.687 L 306.809 242.687 L 306.809 242.687 Q 307.838 243.408 309.031 244.549 L 309.031 244.549 L 309.031 244.549 Q 310.224 245.691 310.882 247.378 L 310.882 247.378 L 310.882 247.378 Q 311.241 248.397 311.385 249.723 L 311.385 249.723 L 311.385 249.723 Q 311.529 251.05 311.585 252.393 L 311.585 252.393 L 311.585 252.393 Q 311.642 253.735 311.961 255.031 L 311.961 255.031 L 311.961 255.031 Q 312.279 256.327 313.164 257.253 L 313.164 257.253 L 313.164 257.253 Q 315.58 259.711 319.674 260.432 L 319.674 260.432 L 319.674 260.432 Q 320.178 261.245 321.16 261.702 L 321.16 261.702 L 321.16 261.702 Q 322.142 262.16 322.996 262.911 L 322.996 262.911 L 322.996 262.911 Q 326.719 267.664 329.624 270.847 L 329.624 270.847 L 329.624 270.847 Q 332.529 274.031 335.162 277.714 L 335.162 277.714 L 335.162 277.714 Q 335.666 278.526 336.447 279.38 L 336.447 279.38 L 336.447 279.38 Q 337.229 280.234 337.733 281.047 L 337.733 281.047 L 337.733 281.047 Q 338.411 281.829 338.725 282.585 L 338.725 282.585 L 338.725 282.585 Q 339.039 283.341 339.512 283.978 L 339.512 283.978 L 339.512 283.978 Q 340.015 284.791 340.489 285.429 L 340.489 285.429 L 340.489 285.429 Q 340.962 286.067 341.496 287.054 L 341.496 287.054 L 341.496 287.054 Q 341.969 287.692 342.633 288.386 L 342.633 288.386 L 342.633 288.386 Q 343.296 289.081 343.388 289.605 Z  M 186.542 298.871 L 186.542 298.871 L 186.542 298.871 Q 186.491 296.536 185.056 296.068 L 185.056 296.068 L 185.056 296.068 Q 183.622 295.6 182.161 295.497 L 182.161 295.497 L 182.161 295.497 Q 179.332 295.815 179.07 297.394 L 179.07 297.394 L 179.07 297.394 Q 178.807 298.973 179.661 299.724 L 179.661 299.724 L 179.661 299.724 Q 180.689 300.444 181.949 300.943 L 181.949 300.943 L 181.949 300.943 Q 183.209 301.442 184.495 301.576 L 184.495 301.576 L 184.495 301.576 Q 185.308 301.072 185.724 300.368 L 185.724 300.368 L 185.724 300.368 Q 186.141 299.663 186.542 298.871 Z  M 219.89 209.875 L 219.89 209.875 L 219.89 209.875 Q 219.725 210.985 219.314 212.23 L 219.314 212.23 L 219.314 212.23 Q 218.902 213.474 218.995 213.999 L 218.995 213.999 L 218.995 213.999 Q 219.149 214.873 220.105 215.696 L 220.105 215.696 L 220.105 215.696 Q 221.062 216.519 221.905 216.19 L 221.905 216.19 L 221.905 216.19 Q 222.399 215.923 222.769 214.956 L 222.769 214.956 L 222.769 214.956 Q 223.14 213.989 223.366 213.228 L 223.366 213.228 L 223.366 213.228 Q 223.737 212.261 223.876 211.516 L 223.876 211.516 L 223.876 211.516 Q 224.015 210.77 224.21 209.834 L 224.21 209.834 L 224.21 209.834 Q 224.488 208.343 225.435 206.553 L 225.435 206.553 L 225.435 206.553 Q 226.381 204.764 226.134 203.365 L 226.134 203.365 L 226.134 203.365 Q 226.011 202.665 225.523 201.94 L 225.523 201.94 L 225.523 201.94 Q 225.034 201.215 224.53 200.402 L 224.53 200.402 L 224.53 200.402 Q 223.317 198.633 222.237 197.111 L 222.237 197.111 L 222.237 197.111 Q 221.157 195.588 219.296 196.277 L 219.296 196.277 L 219.296 196.277 Q 217.609 196.935 217.65 198.19 L 217.65 198.19 L 217.65 198.19 Q 217.289 200.237 218.626 201.173 L 218.626 201.173 L 218.626 201.173 Q 219.963 202.109 220.272 203.858 L 220.272 203.858 L 220.272 203.858 Q 220.755 205.575 220.461 206.979 L 220.461 206.979 L 220.461 206.979 Q 220.168 208.383 219.89 209.875 Z  M 216.937 221.754 L 216.937 221.754 L 216.937 221.754 Q 215.569 222.176 215.142 223.333 L 215.142 223.333 L 215.142 223.333 Q 214.715 224.49 214.858 225.817 L 214.858 225.817 L 214.858 225.817 Q 215.002 227.143 215.743 228.275 L 215.743 228.275 L 215.743 228.275 Q 216.483 229.406 217.45 229.777 L 217.45 229.777 L 217.45 229.777 Q 218.993 229.325 219.523 228.239 L 219.523 228.239 L 219.523 228.239 Q 220.052 227.154 219.749 225.946 L 219.749 225.946 L 219.749 225.946 Q 219.446 224.737 218.603 223.534 L 218.603 223.534 L 218.603 223.534 Q 217.759 222.33 216.937 221.754 Z  M 259.204 268.21 L 259.204 268.21 L 259.204 268.21 Q 259.307 266.749 258.294 266.116 L 258.294 266.116 L 258.294 266.116 Q 257.281 265.484 256.859 264.116 L 256.859 264.116 L 256.859 264.116 Q 256.438 262.748 256.556 261.375 L 256.556 261.375 L 256.556 261.375 Q 256.675 260.001 256.109 258.839 L 256.109 258.839 L 256.109 258.839 Q 255.513 257.502 254.428 256.972 L 254.428 256.972 L 254.428 256.972 Q 253.343 256.442 252.633 255.485 L 252.633 255.485 L 252.633 255.485 Q 250.71 255.825 249.82 254.359 L 249.82 254.359 L 249.82 254.359 Q 248.931 252.893 247.748 251.299 L 247.748 251.299 L 247.748 251.299 Q 245.331 248.84 244.663 247.606 L 244.663 247.606 L 244.663 247.606 Q 243.995 246.371 242.791 245.682 L 242.791 245.682 L 242.791 245.682 Q 240.539 242.113 237.603 238.754 L 237.603 238.754 L 237.603 238.754 Q 234.667 235.395 232.096 232.062 L 232.096 232.062 L 232.096 232.062 Q 231.201 233.122 231.304 234.726 L 231.304 234.726 L 231.304 234.726 Q 231.406 236.331 231.303 237.791 L 231.303 237.791 L 231.303 237.791 Q 230.624 240.075 230.614 240.527 L 230.614 240.527 L 230.614 240.527 Q 230.603 240.98 230.49 241.36 L 230.49 241.36 L 230.49 241.36 Q 230.007 242.708 229.276 242.656 L 229.276 242.656 L 229.276 242.656 Q 228.546 242.605 227.559 243.139 L 227.559 243.139 L 227.559 243.139 Q 225.872 243.797 225.496 245.757 L 225.496 245.757 L 225.496 245.757 Q 225.12 247.716 225.634 249.609 L 225.634 249.609 L 225.634 249.609 Q 225.788 250.483 226.292 251.296 L 226.292 251.296 L 226.292 251.296 Q 226.796 252.108 226.95 252.982 L 226.95 252.982 L 226.95 252.982 Q 227.341 254.176 226.96 255.595 L 226.96 255.595 L 226.96 255.595 Q 226.58 257.014 226.127 258.537 L 226.127 258.537 L 226.127 258.537 Q 225.684 261.139 225.56 263.504 L 225.56 263.504 L 225.56 263.504 Q 225.437 265.87 224.552 268.009 L 224.552 268.009 L 224.552 268.009 Q 224.49 270.725 223.898 272.993 L 223.898 272.993 L 223.898 272.993 Q 223.306 275.261 223.388 277.77 L 223.388 277.77 L 223.388 277.77 Q 231.195 276.033 238.087 274.728 L 238.087 274.728 L 238.087 274.728 Q 244.978 273.422 251.438 271.202 L 251.438 271.202 L 251.438 271.202 Q 252.631 270.811 253.547 270.379 L 253.547 270.379 L 253.547 270.379 Q 254.462 269.947 255.511 269.762 L 255.511 269.762 L 255.511 269.762 Q 256.385 269.608 257.419 269.336 L 257.419 269.336 L 257.419 269.336 Q 258.453 269.063 259.204 268.21 Z  M 286.458 285.761 L 286.458 285.761 L 286.458 285.761 Q 286.685 285 286.51 283.498 L 286.51 283.498 L 286.51 283.498 Q 286.335 281.996 286.068 281.502 L 286.068 281.502 L 286.068 281.502 Q 285.708 280.484 284.351 278.92 L 284.351 278.92 L 284.351 278.92 Q 282.993 277.357 282.407 277.1 L 282.407 277.1 L 282.407 277.1 Q 281.44 276.729 280.525 277.161 L 280.525 277.161 L 280.525 277.161 Q 279.609 277.593 278.21 277.84 L 278.21 277.84 L 278.21 277.84 Q 275.557 278.127 274.014 278.58 L 274.014 278.58 L 274.014 278.58 Q 272.471 279.032 271.103 279.453 L 271.103 279.453 L 271.103 279.453 Q 269.94 280.019 268.948 280.014 L 268.948 280.014 L 268.948 280.014 Q 267.955 280.008 267.287 280.307 L 267.287 280.307 L 267.287 280.307 Q 267.06 281.068 266.716 281.669 L 266.716 281.669 L 266.716 281.669 Q 266.371 282.271 266.35 283.176 L 266.35 283.176 L 266.35 283.176 Q 267.554 283.865 268.541 283.331 L 268.541 283.331 L 268.541 283.331 Q 269.529 282.796 271.308 282.663 L 271.308 282.663 L 271.308 282.663 Q 272.007 282.539 272.547 282.534 L 272.547 282.534 L 272.547 282.534 Q 273.087 282.529 273.581 282.262 L 273.581 282.262 L 273.581 282.262 Q 274.425 281.933 274.975 281.475 L 274.975 281.475 L 274.975 281.475 Q 275.525 281.017 276.05 280.925 L 276.05 280.925 L 276.05 280.925 Q 277.449 280.678 277.937 281.404 L 277.937 281.404 L 277.937 281.404 Q 278.426 282.129 279.104 282.911 L 279.104 282.911 L 279.104 282.911 Q 279.341 283.229 279.768 283.605 L 279.768 283.605 L 279.768 283.605 Q 280.195 283.98 280.668 284.618 L 280.668 284.618 L 280.668 284.618 Q 281.614 285.894 282.087 286.531 L 282.087 286.531 L 282.087 286.531 Q 282.56 287.169 283.846 287.303 L 283.846 287.303 L 283.846 287.303 Q 284.658 286.799 285.43 286.573 L 285.43 286.573 L 285.43 286.573 Q 286.201 286.347 286.458 285.761 Z  M 296.688 246.636 L 296.688 246.636 L 296.688 246.636 Q 298.19 244.929 296.349 241.647 L 296.349 241.647 L 296.349 241.647 Q 295.876 241.009 295.156 240.505 L 295.156 240.505 L 295.156 240.505 Q 294.436 240.001 293.757 239.219 L 293.757 239.219 L 293.757 239.219 Q 293.284 238.582 292.693 237.784 L 292.693 237.784 L 292.693 237.784 Q 292.102 236.987 291.217 236.061 L 291.217 236.061 L 291.217 236.061 Q 290.713 235.249 290.153 234.626 L 290.153 234.626 L 290.153 234.626 Q 289.592 234.004 289.088 233.191 L 289.088 233.191 L 289.088 233.191 Q 288.79 232.523 288.698 231.998 L 288.698 231.998 L 288.698 231.998 Q 288.605 231.474 288.338 230.98 L 288.338 230.98 L 288.338 230.98 Q 287.865 230.342 287.376 229.617 L 287.376 229.617 L 287.376 229.617 Q 286.888 228.892 286.24 228.285 L 286.24 228.285 L 286.24 228.285 Q 285.119 227.04 284.193 226.392 L 284.193 226.392 L 284.193 226.392 Q 283.268 225.744 281.632 225.672 L 281.632 225.672 L 281.632 225.672 Q 281.2 226.289 280.269 226.633 L 280.269 226.633 L 280.269 226.633 Q 279.339 226.978 278.608 226.926 L 278.608 226.926 L 278.608 226.926 Q 278.34 229.497 280.233 230.516 L 280.233 230.516 L 280.233 230.516 Q 282.125 231.534 283.678 232.162 L 283.678 232.162 L 283.678 232.162 Q 285.591 233.808 287.056 237.516 L 287.056 237.516 L 287.056 237.516 Q 288.522 241.224 290.239 243.806 L 290.239 243.806 L 290.239 243.806 Q 290.537 244.475 290.892 244.953 L 290.892 244.953 L 290.892 244.953 Q 291.247 245.432 291.72 246.069 L 291.72 246.069 L 291.72 246.069 Q 292.81 247.139 293.818 247.232 L 293.818 247.232 L 293.818 247.232 Q 294.826 247.325 296.688 246.636 Z  M 330.562 291.506 L 330.562 291.506 L 330.562 291.506 Q 331.056 291.239 331.992 289.902 L 331.992 289.902 L 331.992 289.902 Q 332.928 288.565 332.774 287.691 L 332.774 287.691 L 332.774 287.691 Q 332.743 287.516 331.735 285.89 L 331.735 285.89 L 331.735 285.89 Q 330.903 284.234 330.1 282.753 L 330.1 282.753 L 330.1 282.753 Q 329.298 281.272 327.611 281.93 L 327.611 281.93 L 327.611 281.93 Q 326.943 282.228 326.336 282.876 L 326.336 282.876 L 326.336 282.876 Q 325.729 283.524 325.533 284.46 L 325.533 284.46 L 325.533 284.46 Q 325.338 285.396 325.543 287.072 L 325.543 287.072 L 325.543 287.072 Q 325.749 288.749 326.428 289.531 L 326.428 289.531 L 326.428 289.531 Q 326.931 290.343 328.325 291.089 L 328.325 291.089 L 328.325 291.089 Q 329.719 291.835 330.562 291.506 Z  M 257.047 175.197 L 257.047 175.197 L 257.047 175.197 Q 256.81 174.878 256.702 174.266 L 256.702 174.266 L 256.702 174.266 Q 256.594 173.654 256.358 173.335 L 256.358 173.335 L 256.358 173.335 Q 255.885 172.697 255.664 172.466 L 255.664 172.466 L 255.664 172.466 Q 255.442 172.234 255.319 171.535 L 255.319 171.535 L 255.319 171.535 Q 255.576 170.949 256.625 170.764 L 256.625 170.764 L 256.625 170.764 Q 257.675 170.579 258.374 170.455 L 258.374 170.455 L 258.374 170.455 Q 259.022 171.062 260.112 172.132 L 260.112 172.132 L 260.112 172.132 Q 260.616 172.945 261.192 173.655 L 261.192 173.655 L 261.192 173.655 Q 261.768 174.364 262.272 175.177 L 262.272 175.177 L 262.272 175.177 Q 263.31 176.977 263.516 177.121 L 263.516 177.121 L 263.516 177.121 Q 263.722 177.265 263.783 177.615 L 263.783 177.615 L 263.783 177.615 Q 263.845 177.965 263.413 178.582 L 263.413 178.582 L 263.413 178.582 Q 262.981 179.199 262.281 179.322 L 262.281 179.322 L 262.281 179.322 Q 261.376 179.301 260.358 178.129 L 260.358 178.129 L 260.358 178.129 Q 259.34 176.956 258.692 176.349 L 258.692 176.349 L 258.692 176.349 Q 258.281 176.061 257.782 175.788 L 257.782 175.788 L 257.782 175.788 Q 257.283 175.516 257.047 175.197 Z  M 201.777 211.446 L 201.777 211.446 L 201.777 211.446 Q 202.147 210.479 202.616 209.044 L 202.616 209.044 L 202.616 209.044 Q 203.084 207.609 202.487 206.272 L 202.487 206.272 L 202.487 206.272 Q 202.189 205.604 201.351 204.94 L 201.351 204.94 L 201.351 204.94 Q 200.513 204.277 199.675 203.613 L 199.675 203.613 L 199.675 203.613 Q 198.837 202.949 198.245 202.152 L 198.245 202.152 L 198.245 202.152 Q 197.654 201.355 197.788 200.069 L 197.788 200.069 L 197.788 200.069 Q 197.757 199.894 198.184 198.737 L 198.184 198.737 L 198.184 198.737 Q 198.611 197.58 198.93 197.344 L 198.93 197.344 L 198.93 197.344 Q 200.606 198.671 201.126 199.571 L 201.126 199.571 L 201.126 199.571 Q 201.645 200.471 202.149 201.284 L 202.149 201.284 L 202.149 201.284 Q 203.27 202.528 204.499 204.385 L 204.499 204.385 L 204.499 204.385 Q 205.727 206.242 206.91 207.836 L 206.91 207.836 L 206.91 207.836 Q 207.044 209.616 206.442 210.804 L 206.442 210.804 L 206.442 210.804 Q 205.84 211.991 205.449 213.863 L 205.449 213.863 L 205.449 213.863 Q 205.284 214.974 205.088 215.91 L 205.088 215.91 L 205.088 215.91 Q 204.893 216.846 204.934 218.101 L 204.934 218.101 L 204.934 218.101 Q 201.653 216.877 201.447 215.2 L 201.447 215.2 L 201.447 215.2 Q 201.242 213.523 201.777 211.446 Z  M 269.089 189.3 L 269.089 189.3 L 269.089 189.3 Q 268.143 188.024 266.95 186.883 L 266.95 186.883 L 266.95 186.883 Q 265.757 185.741 265.161 184.403 L 265.161 184.403 L 265.161 184.403 Q 265.973 183.9 266.719 184.039 L 266.719 184.039 L 266.719 184.039 Q 267.465 184.178 268.308 183.849 L 268.308 183.849 L 268.308 183.849 Q 269.162 184.599 269.912 185.278 L 269.912 185.278 L 269.912 185.278 Q 270.663 185.957 271.517 186.708 L 271.517 186.708 L 271.517 186.708 Q 272.175 188.395 273.409 189.259 L 273.409 189.259 L 273.409 189.259 Q 274.643 190.124 275.764 191.368 L 275.764 191.368 L 275.764 191.368 Q 276.885 192.613 277.451 193.775 L 277.451 193.775 L 277.451 193.775 Q 278.016 194.938 279.137 196.182 L 279.137 196.182 L 279.137 196.182 Q 281.677 199.34 284.305 202.483 L 284.305 202.483 L 284.305 202.483 Q 286.932 205.626 289.647 208.753 L 289.647 208.753 L 289.647 208.753 Q 289.565 209.308 289.878 210.064 L 289.878 210.064 L 289.878 210.064 Q 290.192 210.82 290.521 211.664 L 290.521 211.664 L 290.521 211.664 Q 290.85 212.507 290.783 213.15 L 290.783 213.15 L 290.783 213.15 Q 290.716 213.793 290.048 214.091 L 290.048 214.091 L 290.048 214.091 Q 289.348 214.215 288.32 213.494 L 288.32 213.494 L 288.32 213.494 Q 287.291 212.774 287.055 212.455 L 287.055 212.455 L 287.055 212.455 Q 286.643 212.167 286.361 211.586 L 286.361 211.586 L 286.361 211.586 Q 286.078 211.005 285.636 210.542 L 285.636 210.542 L 285.636 210.542 Q 285.224 210.254 284.869 209.776 L 284.869 209.776 L 284.869 209.776 Q 284.515 209.297 284.103 209.009 L 284.103 209.009 L 284.103 209.009 Q 283.219 208.083 282.597 207.111 L 282.597 207.111 L 282.597 207.111 Q 281.975 206.139 281.296 205.357 L 281.296 205.357 L 281.296 205.357 Q 280.854 204.895 280.077 204.581 L 280.077 204.581 L 280.077 204.581 Q 279.301 204.267 278.858 203.804 L 278.858 203.804 L 278.858 203.804 Q 277.83 203.084 277.028 201.603 L 277.028 201.603 L 277.028 201.603 Q 276.226 200.121 275.629 198.784 L 275.629 198.784 L 275.629 198.784 Q 275.033 197.447 274.365 196.213 L 274.365 196.213 L 274.365 196.213 Q 273.696 194.978 272.956 193.847 L 272.956 193.847 L 272.956 193.847 Q 271.752 193.157 270.981 191.851 L 270.981 191.851 L 270.981 191.851 Q 270.21 190.545 269.089 189.3 Z  M 192.274 281.273 L 192.274 281.273 L 192.274 281.273 Q 190.937 281.87 188.967 281.947 L 188.967 281.947 L 188.967 281.947 Q 186.997 282.023 187.1 280.563 L 187.1 280.563 L 187.1 280.563 Q 187.152 279.833 188.587 278.768 L 188.587 278.768 L 188.587 278.768 Q 190.022 277.704 190.896 277.55 L 190.896 277.55 L 190.896 277.55 Q 191.534 277.077 191.632 276.609 L 191.632 276.609 L 191.632 276.609 Q 191.729 276.141 192.192 275.699 L 192.192 275.699 L 192.192 275.699 Q 192.028 273.744 193.736 272.181 L 193.736 272.181 L 193.736 272.181 Q 194.075 271.039 194.43 269.985 L 194.43 269.985 L 194.43 269.985 Q 194.785 268.931 195.125 267.789 L 195.125 267.789 L 195.125 267.789 Q 196.266 271.194 195.489 273.945 L 195.489 273.945 L 195.489 273.945 Q 194.712 276.697 194.742 279.937 L 194.742 279.937 L 194.742 279.937 Q 193.467 280.883 192.274 281.273 Z  M 233.459 268.422 L 233.459 268.422 L 233.459 268.422 Q 234.045 268.679 235.094 268.494 L 235.094 268.494 L 235.094 268.494 Q 236.144 268.309 237.208 268.212 L 237.208 268.212 L 237.208 268.212 Q 238.273 268.114 239.106 268.238 L 239.106 268.238 L 239.106 268.238 Q 239.939 268.361 240.268 269.205 L 240.268 269.205 L 240.268 269.205 Q 237.11 271.745 234.065 272.372 L 234.065 272.372 L 234.065 272.372 Q 231.021 272.999 228.254 273.667 L 228.254 273.667 L 228.254 273.667 Q 227.164 272.597 227.616 271.075 L 227.616 271.075 L 227.616 271.075 Q 228.069 269.553 227.442 268.041 L 227.442 268.041 L 227.442 268.041 Q 228.193 267.187 228.476 266.236 L 228.476 266.236 L 228.476 266.236 Q 228.759 265.284 229.335 264.462 L 229.335 264.462 L 229.335 264.462 Q 228.944 263.268 229.371 262.111 L 229.371 262.111 L 229.371 262.111 Q 229.798 260.954 231.084 261.088 L 231.084 261.088 L 231.084 261.088 Q 231.763 261.87 231.876 263.022 L 231.876 263.022 L 231.876 263.022 Q 231.989 264.174 232.086 265.238 L 232.086 265.238 L 232.086 265.238 Q 232.184 266.303 232.338 267.177 L 232.338 267.177 L 232.338 267.177 Q 232.492 268.052 233.459 268.422 Z  M 183.937 316.819 L 183.937 316.819 L 183.937 316.819 Q 184.873 317.015 185.177 318.223 L 185.177 318.223 L 185.177 318.223 Q 185.48 319.432 186.107 320.944 L 186.107 320.944 L 186.107 320.944 Q 185.469 321.417 185.14 322.106 L 185.14 322.106 L 185.14 322.106 Q 184.811 322.795 183.7 322.63 L 183.7 322.63 L 183.7 322.63 Q 182.157 323.083 181.098 322.188 L 181.098 322.188 L 181.098 322.188 Q 180.039 321.293 179.072 320.922 L 179.072 320.922 L 179.072 320.922 Q 178.516 320.84 177.179 321.436 L 177.179 321.436 L 177.179 321.436 Q 176.305 321.591 175.153 321.704 L 175.153 321.704 L 175.153 321.704 Q 174.001 321.817 173.157 322.146 L 173.157 322.146 L 173.157 322.146 Q 172.314 322.475 171.949 322.449 L 171.949 322.449 L 171.949 322.449 Q 171.584 322.423 170.648 322.228 L 170.648 322.228 L 170.648 322.228 Q 169.887 322.001 169.27 321.569 L 169.27 321.569 L 169.27 321.569 Q 168.652 321.137 168.293 320.119 L 168.293 320.119 L 168.293 320.119 Q 167.696 318.781 167.856 317.131 L 167.856 317.131 L 167.856 317.131 Q 168.016 315.48 167.769 314.081 L 167.769 314.081 L 167.769 314.081 Q 167.615 313.207 167.373 312.348 L 167.373 312.348 L 167.373 312.348 Q 167.132 311.489 167.358 310.728 L 167.358 310.728 L 167.358 310.728 Q 167.471 310.347 167.903 309.73 L 167.903 309.73 L 167.903 309.73 Q 168.335 309.113 168.886 308.655 L 168.886 308.655 L 168.886 308.655 Q 169.436 308.198 169.976 308.193 L 169.976 308.193 L 169.976 308.193 Q 170.516 308.188 170.814 308.856 L 170.814 308.856 L 170.814 308.856 Q 171.174 309.875 171.158 311.32 L 171.158 311.32 L 171.158 311.32 Q 171.143 312.765 171.215 314.195 L 171.215 314.195 L 171.215 314.195 Q 171.286 315.624 171.78 316.889 L 171.78 316.889 L 171.78 316.889 Q 172.273 318.155 173.477 318.844 L 173.477 318.844 L 173.477 318.844 Q 175.369 318.33 175.853 318.515 L 175.853 318.515 L 175.853 318.515 Q 176.336 318.7 176.861 318.608 L 176.861 318.608 L 176.861 318.608 Q 178.465 318.505 180.425 317.348 L 180.425 317.348 L 180.425 317.348 Q 182.384 316.192 183.937 316.819 Z  M 229.947 304.74 L 229.947 304.74 L 229.947 304.74 Q 231.14 304.349 232.312 304.864 L 232.312 304.864 L 232.312 304.864 Q 231.283 307.209 229.71 307.486 L 229.71 307.486 L 229.71 307.486 Q 227.518 310.397 226.526 311.924 L 226.526 311.924 L 226.526 311.924 Q 225.533 313.451 224.967 315.354 L 224.967 315.354 L 224.967 315.354 Q 225.162 317.483 224.74 319.18 L 224.74 319.18 L 224.74 319.18 Q 224.318 320.877 223.69 322.43 L 223.69 322.43 L 223.69 322.43 Q 222.641 322.615 221.715 323.5 L 221.715 323.5 L 221.715 323.5 Q 220.893 322.924 221.279 322.044 L 221.279 322.044 L 221.279 322.044 Q 221.664 321.165 221.099 320.003 L 221.099 320.003 L 221.099 320.003 Q 220.955 317.143 221.316 315.096 L 221.316 315.096 L 221.316 315.096 Q 221.851 313.019 221.568 312.438 L 221.568 312.438 L 221.568 312.438 Q 221.285 311.856 221.542 311.27 L 221.542 311.27 L 221.542 311.27 Q 221.625 310.715 222.057 310.098 L 222.057 310.098 L 222.057 310.098 Q 222.489 309.481 222.602 309.1 L 222.602 309.1 L 222.602 309.1 Q 224.485 307.506 226.593 306.684 L 226.593 306.684 L 226.593 306.684 Q 228.702 305.861 229.947 304.74 Z  M 334.449 301.278 L 334.449 301.278 L 334.449 301.278 Q 335.117 300.98 336.233 301.685 L 336.233 301.685 L 336.233 301.685 Q 337.349 302.389 337.298 303.12 L 337.298 303.12 L 337.298 303.12 Q 336.299 305.639 335.081 306.395 L 335.081 306.395 L 335.081 306.395 Q 333.862 307.151 332.699 307.717 L 332.699 307.717 L 332.699 307.717 Q 332.031 308.015 331.434 308.21 L 331.434 308.21 L 331.434 308.21 Q 330.837 308.405 330.22 307.973 L 330.22 307.973 L 330.22 307.973 Q 330.632 305.196 331.625 303.669 L 331.625 303.669 L 331.625 303.669 Q 332.618 302.142 334.449 301.278 Z  M 321.58 311.12 L 321.58 311.12 L 321.58 311.12 Q 321.991 311.408 323.097 311.032 L 323.097 311.032 L 323.097 311.032 Q 324.203 310.657 324.357 311.531 L 324.357 311.531 L 324.357 311.531 Q 324.48 312.231 322.505 313.3 L 322.505 313.3 L 322.505 313.3 Q 320.53 314.37 320.068 314.812 L 320.068 314.812 L 308.907 323.09 L 308.907 323.09 Q 308.649 323.676 307.965 323.887 L 307.965 323.887 L 307.965 323.887 Q 307.281 324.098 306.818 324.54 L 306.818 324.54 L 306.818 324.54 Q 306.181 325.013 305.836 325.615 L 305.836 325.615 L 305.836 325.615 Q 305.491 326.217 304.473 326.576 L 304.473 326.576 L 304.473 326.576 Q 303.629 326.905 302.678 326.622 L 302.678 326.622 L 302.678 326.622 Q 301.727 326.339 300.822 326.319 L 300.822 326.319 L 300.822 326.319 Q 299.947 326.473 299.351 326.668 L 299.351 326.668 L 299.351 326.668 Q 298.754 326.864 298.199 326.781 L 298.199 326.781 L 298.199 326.781 Q 295.278 326.575 292.866 324.657 L 292.866 324.657 L 292.866 324.657 Q 290.454 322.738 288.716 321.061 L 288.716 321.061 L 288.716 321.061 Q 288.562 320.187 288.151 319.899 L 288.151 319.899 L 288.151 319.899 Q 287.739 319.611 287.441 318.942 L 287.441 318.942 L 287.441 318.942 Q 285.507 318.201 284.757 317.522 L 284.757 317.522 L 284.757 317.522 Q 284.006 316.843 284.14 315.558 L 284.14 315.558 L 284.14 315.558 Q 284.366 314.797 285.179 314.293 L 285.179 314.293 L 285.179 314.293 Q 285.992 313.789 286.578 314.046 L 286.578 314.046 L 286.578 314.046 Q 288.038 314.149 289.046 315.774 L 289.046 315.774 L 289.046 315.774 Q 290.054 317.4 291.524 318.583 L 291.524 318.583 L 291.524 318.583 Q 292.645 319.827 294.245 320.717 L 294.245 320.717 L 294.245 320.717 Q 295.844 321.607 297.397 322.235 L 297.397 322.235 L 297.397 322.235 Q 298.302 322.256 299.238 322.451 L 299.238 322.451 L 299.238 322.451 Q 300.174 322.647 301.048 322.493 L 301.048 322.493 L 301.048 322.493 Q 302.941 321.979 304.582 321.058 L 304.582 321.058 L 304.582 321.058 Q 306.222 320.138 308.115 319.624 L 308.115 319.624 L 308.115 319.624 Q 312.795 317.537 315.65 315.32 L 315.65 315.32 L 315.65 315.32 Q 318.504 313.104 321.58 311.12 Z " fill="rgb(0,0,0)"/></g></g></svg>