<?xml version="1.0" encoding="UTF-8" standalone="no"?><!-- Generator: Gravit.io --><svg xmlns="http://www.w3.org/2000/svg" xmlns:xlink="http://www.w3.org/1999/xlink" style="isolation:isolate" viewBox="0 0 700 530" width="700pt" height="530pt"><defs><clipPath id="_clipPath_LA1Y6LqUzPer4Qn6rtHHG1s7oHNAnOlG"><rect width="700" height="530"/></clipPath></defs><g clip-path="url(#_clipPath_LA1Y6LqUzPer4Qn6rtHHG1s7oHNAnOlG)"><g><path d="M 0 31 L 700 31 L 700 515.513 C 700 523.509 693.509 530 685.513 530 L 14.487 530 C 6.491 530 0 523.509 0 515.513 L 0 31 Z" style="stroke:none;fill:#FFFFFF;stroke-miterlimit:10;"/><g><path d="M 700 31 L 0 31 L 0 14 C 0 6.273 6.273 0 14 0 L 686 0 C 693.727 0 700 6.273 700 14 L 700 31 Z" style="stroke:none;fill:#444E50;stroke-miterlimit:10;"/><g><circle vector-effect="non-scaling-stroke" cx="17.49999999999983" cy="15.499999999999979" r="7.5" fill="rgb(243,94,106)"/><circle vector-effect="non-scaling-stroke" cx="40.5" cy="15.499999999999979" r="7.5" fill="rgb(241,219,94)"/><circle vector-effect="non-scaling-stroke" cx="63.5" cy="15.499999999999979" r="7.5" fill="rgb(121,189,92)"/></g></g></g><path d=" M 660.533 347.378 L 667 343.645 L 657.747 338.322 L 648.495 333 L 648.478 343.674 L 648.461 354.348 L 654.928 350.614 L 660.128 359.621 L 665.733 356.385 L 660.533 347.378 Z " fill="rgb(0,0,0)"/><g><g><g><rect x="133" y="308.644" width="180" height="180" transform="matrix(1,0,0,1,0,0)" fill="rgb(255,255,255)" vector-effect="non-scaling-stroke" stroke-width="12" stroke="rgb(42,86,153)" stroke-linejoin="miter" stroke-linecap="square" stroke-miterlimit="2"/><path d=" M 153.696 366.004 L 153.696 357.044 L 194.528 357.044 L 194.528 366.004 L 183.904 367.796 L 199.136 424.244 L 201.568 436.148 L 203.744 424.244 L 216.8 378.676 L 213.088 367.796 L 205.024 366.004 L 205.024 357.044 L 247.776 357.044 L 247.776 366.004 L 235.616 367.796 L 250.848 424.244 L 253.664 437.172 L 255.84 424.244 L 269.536 367.796 L 258.656 366.004 L 258.656 357.044 L 289.76 357.044 L 289.76 366.004 L 281.824 367.796 L 258.144 452.788 L 238.56 452.788 L 222.048 395.828 L 206.432 452.788 L 187.104 452.788 L 161.12 367.796 L 153.696 366.004 Z " fill="rgb(42,86,153)"/></g><g><rect x="387" y="308.644" width="180" height="180" transform="matrix(1,0,0,1,0,0)" fill="rgb(0,0,0)" vector-effect="non-scaling-stroke" stroke-width="5" stroke="rgb(0,200,255)" stroke-linejoin="miter" stroke-linecap="square" stroke-miterlimit="2"/><path d=" M 450.064 419.956 L 437.136 419.956 L 437.136 452.532 L 419.92 452.532 L 419.92 359.988 L 450.064 359.988 L 450.064 359.988 Q 459.344 359.988 466.128 362.164 L 466.128 362.164 L 466.128 362.164 Q 472.912 364.34 477.328 368.244 L 477.328 368.244 L 477.328 368.244 Q 481.744 372.148 483.856 377.588 L 483.856 377.588 L 483.856 377.588 Q 485.968 383.028 485.968 389.492 L 485.968 389.492 L 485.968 389.492 Q 485.968 396.212 483.728 401.812 L 483.728 401.812 L 483.728 401.812 Q 481.488 407.412 477.008 411.444 L 477.008 411.444 L 477.008 411.444 Q 472.528 415.476 465.808 417.716 L 465.808 417.716 L 465.808 417.716 Q 459.088 419.956 450.064 419.956 L 450.064 419.956 Z  M 437.136 373.3 L 437.136 406.516 L 450.064 406.516 L 450.064 406.516 Q 454.8 406.516 458.32 405.332 L 458.32 405.332 L 458.32 405.332 Q 461.84 404.148 464.144 401.94 L 464.144 401.94 L 464.144 401.94 Q 466.448 399.732 467.6 396.564 L 467.6 396.564 L 467.6 396.564 Q 468.752 393.396 468.752 389.492 L 468.752 389.492 L 468.752 389.492 Q 468.752 385.78 467.6 382.772 L 467.6 382.772 L 467.6 382.772 Q 466.448 379.764 464.144 377.652 L 464.144 377.652 L 464.144 377.652 Q 461.84 375.54 458.32 374.42 L 458.32 374.42 L 458.32 374.42 Q 454.8 373.3 450.064 373.3 L 450.064 373.3 L 437.136 373.3 Z  M 541.008 393.972 L 537.424 399.668 L 537.424 399.668 Q 536.784 400.692 536.08 401.108 L 536.08 401.108 L 536.08 401.108 Q 535.376 401.524 534.288 401.524 L 534.288 401.524 L 534.288 401.524 Q 533.136 401.524 531.824 400.884 L 531.824 400.884 L 531.824 400.884 Q 530.512 400.244 528.784 399.444 L 528.784 399.444 L 528.784 399.444 Q 527.056 398.644 524.848 398.004 L 524.848 398.004 L 524.848 398.004 Q 522.64 397.364 519.632 397.364 L 519.632 397.364 L 519.632 397.364 Q 514.96 397.364 512.272 399.348 L 512.272 399.348 L 512.272 399.348 Q 509.584 401.332 509.584 404.532 L 509.584 404.532 L 509.584 404.532 Q 509.584 406.644 510.96 408.084 L 510.96 408.084 L 510.96 408.084 Q 512.336 409.524 514.608 410.612 L 514.608 410.612 L 514.608 410.612 Q 516.88 411.7 519.76 412.564 L 519.76 412.564 L 519.76 412.564 Q 522.64 413.428 525.648 414.452 L 525.648 414.452 L 525.648 414.452 Q 528.656 415.476 531.536 416.788 L 531.536 416.788 L 531.536 416.788 Q 534.416 418.1 536.688 420.116 L 536.688 420.116 L 536.688 420.116 Q 538.96 422.132 540.336 424.948 L 540.336 424.948 L 540.336 424.948 Q 541.712 427.764 541.712 431.732 L 541.712 431.732 L 541.712 431.732 Q 541.712 436.468 539.984 440.468 L 539.984 440.468 L 539.984 440.468 Q 538.256 444.468 534.928 447.38 L 534.928 447.38 L 534.928 447.38 Q 531.6 450.292 526.704 451.924 L 526.704 451.924 L 526.704 451.924 Q 521.808 453.556 515.472 453.556 L 515.472 453.556 L 515.472 453.556 Q 512.08 453.556 508.848 452.948 L 508.848 452.948 L 508.848 452.948 Q 505.616 452.34 502.64 451.252 L 502.64 451.252 L 502.64 451.252 Q 499.664 450.164 497.136 448.692 L 497.136 448.692 L 497.136 448.692 Q 494.608 447.22 492.688 445.492 L 492.688 445.492 L 496.336 439.476 L 496.336 439.476 Q 497.04 438.388 498 437.812 L 498 437.812 L 498 437.812 Q 498.96 437.236 500.432 437.236 L 500.432 437.236 L 500.432 437.236 Q 501.904 437.236 503.216 438.068 L 503.216 438.068 L 503.216 438.068 Q 504.528 438.9 506.256 439.86 L 506.256 439.86 L 506.256 439.86 Q 507.984 440.82 510.32 441.652 L 510.32 441.652 L 510.32 441.652 Q 512.656 442.484 516.24 442.484 L 516.24 442.484 L 516.24 442.484 Q 519.056 442.484 521.072 441.812 L 521.072 441.812 L 521.072 441.812 Q 523.088 441.14 524.4 440.052 L 524.4 440.052 L 524.4 440.052 Q 525.712 438.964 526.32 437.524 L 526.32 437.524 L 526.32 437.524 Q 526.928 436.084 526.928 434.548 L 526.928 434.548 L 526.928 434.548 Q 526.928 432.244 525.552 430.772 L 525.552 430.772 L 525.552 430.772 Q 524.176 429.3 521.904 428.212 L 521.904 428.212 L 521.904 428.212 Q 519.632 427.124 516.72 426.26 L 516.72 426.26 L 516.72 426.26 Q 513.808 425.396 510.768 424.372 L 510.768 424.372 L 510.768 424.372 Q 507.728 423.348 504.816 421.972 L 504.816 421.972 L 504.816 421.972 Q 501.904 420.596 499.632 418.484 L 499.632 418.484 L 499.632 418.484 Q 497.36 416.372 495.984 413.3 L 495.984 413.3 L 495.984 413.3 Q 494.608 410.228 494.608 405.876 L 494.608 405.876 L 494.608 405.876 Q 494.608 401.844 496.208 398.196 L 496.208 398.196 L 496.208 398.196 Q 497.808 394.548 500.912 391.828 L 500.912 391.828 L 500.912 391.828 Q 504.016 389.108 508.656 387.476 L 508.656 387.476 L 508.656 387.476 Q 513.296 385.844 519.376 385.844 L 519.376 385.844 L 519.376 385.844 Q 526.16 385.844 531.728 388.084 L 531.728 388.084 L 531.728 388.084 Q 537.296 390.324 541.008 393.972 L 541.008 393.972 Z " fill="rgb(0,200,255)"/></g></g><g><g><rect x="375.689" y="70.735" width="250.311" height="183.481" transform="matrix(1,0,0,1,0,0)" fill="rgb(255,255,255)" vector-effect="non-scaling-stroke" stroke-width="16" stroke="rgb(33,131,128)" stroke-linejoin="miter" stroke-linecap="square" stroke-miterlimit="2"/><path d=" M 492.937 254.216 L 381.716 254.216 L 381.716 254.216 C 378.389 254.216 375.689 251.515 375.689 248.189 L 375.689 197.821 L 378.288 193.955 L 414.946 139.451 C 417.082 136.274 420.552 136.274 422.688 139.451 L 459.346 193.955 L 496.003 248.46 C 498.14 251.637 496.766 254.216 492.937 254.216 Z " fill-rule="evenodd" fill="rgb(33,131,128)"/><path d=" M 543.268 254.216 L 500.844 254.216 L 458.421 254.216 C 454.592 254.216 452.957 251.479 454.771 248.107 L 476.164 208.346 L 497.558 168.584 C 499.372 165.213 502.317 165.213 504.131 168.584 L 525.525 208.346 L 546.918 248.107 C 548.732 251.479 547.096 254.216 543.268 254.216 Z " fill="rgb(33,131,128)"/><path d=" M 626 181.725 L 626 248.189 C 626 251.515 623.299 254.216 619.973 254.216 L 597.525 254.216 L 523.933 254.216 L 523.933 254.216 C 520.104 254.216 518.809 251.691 521.042 248.581 L 557.261 198.143 L 593.479 147.706 C 595.712 144.596 599.338 144.596 601.571 147.706 L 626 181.725 Z " fill-rule="evenodd" fill="rgb(33,131,128)"/><circle vector-effect="non-scaling-stroke" cx="520.5834709757305" cy="113.60481859989649" r="24.189210556240795" fill="rgb(33,131,128)"/></g><g><rect x="74" y="68.173" width="256.254" height="186.367" transform="matrix(1,0,0,1,0,0)" fill="rgb(33,131,128)"/><g><rect x="134.644" y="86.477" width="134.967" height="66.005" transform="matrix(1,0,0,1,0,0)" fill="rgb(255,255,255)"/><rect x="134.644" y="171.34" width="134.967" height="64.895" transform="matrix(1,0,0,1,0,0)" fill="rgb(255,255,255)"/></g><g><rect x="281.407" y="86.477" width="33.317" height="29.397" transform="matrix(1,0,0,1,0,0)" fill="rgb(255,255,255)"/><rect x="281.407" y="126.597" width="33.317" height="29.397" transform="matrix(1,0,0,1,0,0)" fill="rgb(255,255,255)"/><rect x="281.407" y="166.718" width="33.317" height="29.397" transform="matrix(1,0,0,1,0,0)" fill="rgb(255,255,255)"/><rect x="281.407" y="206.839" width="33.317" height="29.397" transform="matrix(1,0,0,1,0,0)" fill="rgb(255,255,255)"/><rect x="281.407" y="246.959" width="33.317" height="29.397" transform="matrix(1,0,0,1,0,0)" fill="rgb(255,255,255)"/><rect x="281.407" y="46.356" width="33.317" height="29.397" transform="matrix(1,0,0,1,0,0)" fill="rgb(255,255,255)"/></g><g><rect x="87.312" y="86.477" width="33.317" height="29.397" transform="matrix(1,0,0,1,0,0)" fill="rgb(255,255,255)"/><rect x="87.312" y="46.356" width="33.317" height="29.397" transform="matrix(1,0,0,1,0,0)" fill="rgb(255,255,255)"/><rect x="87.312" y="126.597" width="33.317" height="29.397" transform="matrix(1,0,0,1,0,0)" fill="rgb(255,255,255)"/><rect x="87.312" y="166.718" width="33.317" height="29.397" transform="matrix(1,0,0,1,0,0)" fill="rgb(255,255,255)"/><rect x="87.312" y="206.839" width="33.317" height="29.397" transform="matrix(1,0,0,1,0,0)" fill="rgb(255,255,255)"/><rect x="87.312" y="246.959" width="33.317" height="29.397" transform="matrix(1,0,0,1,0,0)" fill="rgb(255,255,255)"/></g></g></g></g></g></svg>