<?xml version="1.0" encoding="UTF-8" standalone="no"?><!-- Generator: Gravit.io --><svg xmlns="http://www.w3.org/2000/svg" xmlns:xlink="http://www.w3.org/1999/xlink" style="isolation:isolate" viewBox="0 0 700 530" width="700pt" height="530pt"><defs><clipPath id="_clipPath_fvquQmo1ksJHPdMuB0ecLZie304AI1Ry"><rect width="700" height="530"/></clipPath></defs><g clip-path="url(#_clipPath_fvquQmo1ksJHPdMuB0ecLZie304AI1Ry)"><g><path d="M 0 68 L 700 68 L 700 516.06 C 700 523.754 693.754 530 686.06 530 L 13.94 530 C 6.246 530 0 523.754 0 516.06 L 0 68 Z" style="stroke:none;fill:#FFFFFF;stroke-miterlimit:10;"/><g><circle vector-effect="non-scaling-stroke" cx="134.7500000000002" cy="490.7640449438203" r="51.23595505617965" fill="rgb(33,131,128)" fill-opacity="0.5"/><circle vector-effect="non-scaling-stroke" cx="350.00000000000006" cy="490.7640449438203" r="51.23595505617965" fill="rgb(33,131,128)" fill-opacity="0.5"/><circle vector-effect="non-scaling-stroke" cx="565.25" cy="490.7640449438201" r="51.235955056179705" fill="rgb(33,131,128)" fill-opacity="0.5"/></g><g><path d="M 700 31 L 0 31 L 0 14 C 0 6.273 6.273 0 14 0 L 686 0 C 693.727 0 700 6.273 700 14 L 700 31 Z" style="stroke:none;fill:#444E50;stroke-miterlimit:10;"/><g><circle vector-effect="non-scaling-stroke" cx="17.49999999999983" cy="15.499999999999979" r="7.5" fill="rgb(243,94,106)"/><circle vector-effect="non-scaling-stroke" cx="40.5" cy="15.499999999999979" r="7.5" fill="rgb(241,219,94)"/><circle vector-effect="non-scaling-stroke" cx="63.5" cy="15.499999999999979" r="7.5" fill="rgb(121,189,92)"/></g></g><rect x="0" y="31" width="700" height="37" transform="matrix(1,0,0,1,0,0)" fill="rgb(73,83,85)" fill-opacity="0.85"/><path d="M 22.134 39 L 606.866 39 C 613.563 39 619 43.705 619 49.5 L 619 49.5 C 619 55.295 613.563 60 606.866 60 L 22.134 60 C 15.437 60 10 55.295 10 49.5 L 10 49.5 C 10 43.705 15.437 39 22.134 39 Z" style="stroke:none;fill:#444E50;stroke-miterlimit:10;"/><path d="M 635.915 39 L 652.085 39 C 653.418 39 654.5 40.082 654.5 41.415 L 654.5 57.585 C 654.5 58.918 653.418 60 652.085 60 L 635.915 60 C 634.582 60 633.5 58.918 633.5 57.585 L 633.5 41.415 C 633.5 40.082 634.582 39 635.915 39 Z" style="stroke:none;fill:#444E50;stroke-miterlimit:10;"/><path d="M 671.415 39 L 687.585 39 C 688.918 39 690 40.082 690 41.415 L 690 57.585 C 690 58.918 688.918 60 687.585 60 L 671.415 60 C 670.082 60 669 58.918 669 57.585 L 669 41.415 C 669 40.082 670.082 39 671.415 39 Z" style="stroke:none;fill:#444E50;stroke-miterlimit:10;"/><rect x="0" y="68" width="700" height="61" transform="matrix(1,0,0,1,0,0)" fill="rgb(235,235,235)"/><path d="M 470.366 91 L 546.634 91 C 547.94 91 549 92.06 549 93.366 L 549 103.634 C 549 104.94 547.94 106 546.634 106 L 470.366 106 C 469.06 106 468 104.94 468 103.634 L 468 93.366 C 468 92.06 469.06 91 470.366 91 Z" style="stroke:none;fill:#C8C8C8;stroke-miterlimit:10;"/><g><path d="M 53.9 83.5 L 156.1 83.5 C 158.252 83.5 160 85.248 160 87.4 L 160 109.6 C 160 111.752 158.252 113.5 156.1 113.5 L 53.9 113.5 C 51.748 113.5 50 111.752 50 109.6 L 50 87.4 C 50 85.248 51.748 83.5 53.9 83.5 Z" style="stroke:none;fill:#C8C8C8;stroke-miterlimit:10;"/><path d="M 571.366 91 L 647.634 91 C 648.94 91 650 92.06 650 93.366 L 650 103.634 C 650 104.94 648.94 106 647.634 106 L 571.366 106 C 570.06 106 569 104.94 569 103.634 L 569 93.366 C 569 92.06 570.06 91 571.366 91 Z" style="stroke:none;fill:#C8C8C8;stroke-miterlimit:10;"/><path d="M 470.366 91 L 546.634 91 C 547.94 91 549 92.06 549 93.366 L 549 103.634 C 549 104.94 547.94 106 546.634 106 L 470.366 106 C 469.06 106 468 104.94 468 103.634 L 468 93.366 C 468 92.06 469.06 91 470.366 91 Z" style="stroke:none;fill:#C8C8C8;stroke-miterlimit:10;"/><path d="M 369.366 91 L 445.634 91 C 446.94 91 448 92.06 448 93.366 L 448 103.634 C 448 104.94 446.94 106 445.634 106 L 369.366 106 C 368.06 106 367 104.94 367 103.634 L 367 93.366 C 367 92.06 368.06 91 369.366 91 Z" style="stroke:none;fill:#C8C8C8;stroke-miterlimit:10;"/></g><g><g><path d="M 53.527 220.317 L 249.473 220.317 C 251.419 220.317 253 221.898 253 223.845 L 253 257.779 C 253 259.726 251.419 261.306 249.473 261.306 L 53.527 261.306 C 51.581 261.306 50 259.726 50 257.779 L 50 223.845 C 50 221.898 51.581 220.317 53.527 220.317 Z" style="stroke:none;fill:#218380;stroke-miterlimit:10;"/><g><g style="mix-blend-mode:normal;" opacity="0.2"><path d="M 53.651 289.817 L 331.99 289.817 C 334.005 289.817 335.64 291.453 335.64 293.468 L 335.64 298.976 C 335.64 300.991 334.005 302.626 331.99 302.626 L 53.651 302.626 C 51.636 302.626 50 300.991 50 298.976 L 50 293.468 C 50 291.453 51.636 289.817 53.651 289.817 Z" style="stroke:none;fill:#575757;stroke-miterlimit:10;"/></g><g style="mix-blend-mode:normal;" opacity="0.2"><path d="M 53.651 321.84 L 331.99 321.84 C 334.005 321.84 335.64 323.476 335.64 325.49 L 335.64 330.998 C 335.64 333.013 334.005 334.649 331.99 334.649 L 53.651 334.649 C 51.636 334.649 50 333.013 50 330.998 L 50 325.49 C 50 323.476 51.636 321.84 53.651 321.84 Z" style="stroke:none;fill:#575757;stroke-miterlimit:10;"/></g><g style="mix-blend-mode:normal;" opacity="0.2"><path d="M 53.651 352.581 L 280.754 352.581 C 282.769 352.581 284.404 354.217 284.404 356.232 L 284.404 361.74 C 284.404 363.755 282.769 365.39 280.754 365.39 L 53.651 365.39 C 51.636 365.39 50 363.755 50 361.74 L 50 356.232 C 50 354.217 51.636 352.581 53.651 352.581 Z" style="stroke:none;fill:#575757;stroke-miterlimit:10;"/></g></g></g><g><rect x="358" y="198.708" width="292.045" height="188.292" transform="matrix(1,0,0,1,0,0)" fill="rgb(235,235,235)"/><circle vector-effect="non-scaling-stroke" cx="504.02247191011503" cy="292.85393258427433" r="48.67415730337069" fill="rgb(255,255,255)"/><path d=" M 531.89 294.698 L 511.708 306.35 L 491.526 318.002 C 489.764 319.019 488.333 318.193 488.333 316.158 L 488.333 292.854 L 488.333 269.55 C 488.333 267.515 489.764 266.689 491.526 267.706 L 511.708 279.358 L 531.89 291.01 C 533.652 292.028 533.652 293.68 531.89 294.698 Z " fill="rgb(33,131,128)"/></g></g></g><g><g><path d="M 473 400.602 L 227 400.602 L 227 386 C 227 378.273 233.273 372 241 372 L 459 372 C 466.727 372 473 378.273 473 386 L 473 400.602 Z" style="stroke:none;fill:#444E50;stroke-miterlimit:10;"/><g><circle vector-effect="non-scaling-stroke" cx="243.14622641509305" cy="386.30094339622343" r="6.9198113207547465" fill="rgb(243,94,106)"/><circle vector-effect="non-scaling-stroke" cx="264.3669811320746" cy="386.30094339622343" r="6.919811320754775" fill="rgb(241,219,94)"/><circle vector-effect="non-scaling-stroke" cx="285.5877358490556" cy="386.30094339622343" r="6.919811320754775" fill="rgb(121,189,92)"/></g></g><g><path d="M 227 400.602 L 473 400.602 L 473 484 C 473 491.727 466.727 498 459 498 L 241 498 C 233.273 498 227 491.727 227 484 L 227 400.602 Z" style="stroke:none;fill:#000000;stroke-miterlimit:10;"/><g><g><path d="M 239.6 411.301 L 281.4 411.301 C 282.835 411.301 284 412.466 284 413.901 L 284 416.701 C 284 418.136 282.835 419.301 281.4 419.301 L 239.6 419.301 C 238.165 419.301 237 418.136 237 416.701 L 237 413.901 C 237 412.466 238.165 411.301 239.6 411.301 Z" style="stroke:none;fill:#B7B7B7;stroke-miterlimit:10;"/><path d="M 295.68 411.301 L 437.32 411.301 C 438.799 411.301 440 412.502 440 413.981 L 440 416.621 C 440 418.1 438.799 419.301 437.32 419.301 L 295.68 419.301 C 294.201 419.301 293 418.1 293 416.621 L 293 413.981 C 293 412.502 294.201 411.301 295.68 411.301 Z" style="stroke:none;fill:#FFFFFF;stroke-miterlimit:10;"/></g><path d="M 239.68 428.301 L 381.32 428.301 C 382.799 428.301 384 429.502 384 430.981 L 384 433.621 C 384 435.1 382.799 436.301 381.32 436.301 L 239.68 436.301 C 238.201 436.301 237 435.1 237 433.621 L 237 430.981 C 237 429.502 238.201 428.301 239.68 428.301 Z" style="stroke:none;fill:#FFFFFF;stroke-miterlimit:10;"/><path d="M 239.99 445.301 L 417.01 445.301 C 418.66 445.301 420 446.641 420 448.291 L 420 450.311 C 420 451.961 418.66 453.301 417.01 453.301 L 239.99 453.301 C 238.34 453.301 237 451.961 237 450.311 L 237 448.291 C 237 446.641 238.34 445.301 239.99 445.301 Z" style="stroke:none;fill:#FFFFFF;stroke-miterlimit:10;"/><path d="M 240.04 462.301 L 303.96 462.301 C 305.638 462.301 307 463.663 307 465.341 L 307 467.261 C 307 468.939 305.638 470.301 303.96 470.301 L 240.04 470.301 C 238.362 470.301 237 468.939 237 467.261 L 237 465.341 C 237 463.663 238.362 462.301 240.04 462.301 Z" style="stroke:none;fill:#00B749;stroke-miterlimit:10;"/><path d="M 321.478 462.301 L 397.022 462.301 C 398.666 462.301 400 463.635 400 465.279 L 400 467.323 C 400 468.967 398.666 470.301 397.022 470.301 L 321.478 470.301 C 319.834 470.301 318.5 468.967 318.5 467.323 L 318.5 465.279 C 318.5 463.635 319.834 462.301 321.478 462.301 Z" style="stroke:none;fill:#FFFFFF;stroke-miterlimit:10;"/><path d="M 239.822 479.301 L 397.178 479.301 C 398.735 479.301 400 480.565 400 482.123 L 400 484.479 C 400 486.036 398.735 487.301 397.178 487.301 L 239.822 487.301 C 238.265 487.301 237 486.036 237 484.479 L 237 482.123 C 237 480.565 238.265 479.301 239.822 479.301 Z" style="stroke:none;fill:#FFFFFF;stroke-miterlimit:10;"/></g></g></g><path d=" M 537.533 373.068 L 544 369.334 L 534.747 364.012 L 525.495 358.69 L 525.478 369.364 L 525.461 380.038 L 531.928 376.304 L 537.128 385.31 L 542.733 382.075 L 537.533 373.068 Z " fill="rgb(0,0,0)"/></g></svg>