<?xml version="1.0" encoding="UTF-8" standalone="no"?><!-- Generator: Gravit.io --><svg xmlns="http://www.w3.org/2000/svg" xmlns:xlink="http://www.w3.org/1999/xlink" style="isolation:isolate" viewBox="0 0 700 530" width="700pt" height="530pt"><defs><clipPath id="_clipPath_TlzWSvfeE60kg19P58Z6vSm4Giam69rk"><rect width="700" height="530"/></clipPath></defs><g clip-path="url(#_clipPath_TlzWSvfeE60kg19P58Z6vSm4Giam69rk)"><g><path d="M 0 68 L 700 68 L 700 516.06 C 700 523.754 693.754 530 686.06 530 L 13.94 530 C 6.246 530 0 523.754 0 516.06 L 0 68 Z" style="stroke:none;fill:#FFFFFF;stroke-miterlimit:10;"/><g><circle vector-effect="non-scaling-stroke" cx="134.7500000000002" cy="490.7640449438203" r="51.23595505617965" fill="rgb(33,131,128)" fill-opacity="0.5"/><circle vector-effect="non-scaling-stroke" cx="350.00000000000006" cy="490.7640449438203" r="51.23595505617965" fill="rgb(33,131,128)" fill-opacity="0.5"/><circle vector-effect="non-scaling-stroke" cx="565.25" cy="490.7640449438201" r="51.235955056179705" fill="rgb(33,131,128)" fill-opacity="0.5"/></g><g><path d="M 700 31 L 0 31 L 0 14 C 0 6.273 6.273 0 14 0 L 686 0 C 693.727 0 700 6.273 700 14 L 700 31 Z" style="stroke:none;fill:#444E50;stroke-miterlimit:10;"/><g><circle vector-effect="non-scaling-stroke" cx="17.49999999999983" cy="15.499999999999979" r="7.5" fill="rgb(243,94,106)"/><circle vector-effect="non-scaling-stroke" cx="40.5" cy="15.499999999999979" r="7.5" fill="rgb(241,219,94)"/><circle vector-effect="non-scaling-stroke" cx="63.5" cy="15.499999999999979" r="7.5" fill="rgb(121,189,92)"/></g></g><rect x="0" y="31" width="700" height="37" transform="matrix(1,0,0,1,0,0)" fill="rgb(73,83,85)" fill-opacity="0.85"/><path d="M 22.134 39 L 606.866 39 C 613.563 39 619 43.705 619 49.5 L 619 49.5 C 619 55.295 613.563 60 606.866 60 L 22.134 60 C 15.437 60 10 55.295 10 49.5 L 10 49.5 C 10 43.705 15.437 39 22.134 39 Z" style="stroke:none;fill:#444E50;stroke-miterlimit:10;"/><path d="M 635.915 39 L 652.085 39 C 653.418 39 654.5 40.082 654.5 41.415 L 654.5 57.585 C 654.5 58.918 653.418 60 652.085 60 L 635.915 60 C 634.582 60 633.5 58.918 633.5 57.585 L 633.5 41.415 C 633.5 40.082 634.582 39 635.915 39 Z" style="stroke:none;fill:#444E50;stroke-miterlimit:10;"/><path d="M 671.415 39 L 687.585 39 C 688.918 39 690 40.082 690 41.415 L 690 57.585 C 690 58.918 688.918 60 687.585 60 L 671.415 60 C 670.082 60 669 58.918 669 57.585 L 669 41.415 C 669 40.082 670.082 39 671.415 39 Z" style="stroke:none;fill:#444E50;stroke-miterlimit:10;"/><rect x="0" y="68" width="700" height="61" transform="matrix(1,0,0,1,0,0)" fill="rgb(235,235,235)"/><path d="M 470.366 91 L 546.634 91 C 547.94 91 549 92.06 549 93.366 L 549 103.634 C 549 104.94 547.94 106 546.634 106 L 470.366 106 C 469.06 106 468 104.94 468 103.634 L 468 93.366 C 468 92.06 469.06 91 470.366 91 Z" style="stroke:none;fill:#C8C8C8;stroke-miterlimit:10;"/><g><path d="M 53.9 83.5 L 156.1 83.5 C 158.252 83.5 160 85.248 160 87.4 L 160 109.6 C 160 111.752 158.252 113.5 156.1 113.5 L 53.9 113.5 C 51.748 113.5 50 111.752 50 109.6 L 50 87.4 C 50 85.248 51.748 83.5 53.9 83.5 Z" style="stroke:none;fill:#C8C8C8;stroke-miterlimit:10;"/><path d="M 571.366 91 L 647.634 91 C 648.94 91 650 92.06 650 93.366 L 650 103.634 C 650 104.94 648.94 106 647.634 106 L 571.366 106 C 570.06 106 569 104.94 569 103.634 L 569 93.366 C 569 92.06 570.06 91 571.366 91 Z" style="stroke:none;fill:#C8C8C8;stroke-miterlimit:10;"/><path d="M 470.366 91 L 546.634 91 C 547.94 91 549 92.06 549 93.366 L 549 103.634 C 549 104.94 547.94 106 546.634 106 L 470.366 106 C 469.06 106 468 104.94 468 103.634 L 468 93.366 C 468 92.06 469.06 91 470.366 91 Z" style="stroke:none;fill:#C8C8C8;stroke-miterlimit:10;"/><path d="M 369.366 91 L 445.634 91 C 446.94 91 448 92.06 448 93.366 L 448 103.634 C 448 104.94 446.94 106 445.634 106 L 369.366 106 C 368.06 106 367 104.94 367 103.634 L 367 93.366 C 367 92.06 368.06 91 369.366 91 Z" style="stroke:none;fill:#C8C8C8;stroke-miterlimit:10;"/></g><g><g><path d="M 53.527 220.317 L 249.473 220.317 C 251.419 220.317 253 221.898 253 223.845 L 253 257.779 C 253 259.726 251.419 261.306 249.473 261.306 L 53.527 261.306 C 51.581 261.306 50 259.726 50 257.779 L 50 223.845 C 50 221.898 51.581 220.317 53.527 220.317 Z" style="stroke:none;fill:#218380;stroke-miterlimit:10;"/><g><g style="mix-blend-mode:normal;" opacity="0.2"><path d="M 53.651 289.817 L 331.99 289.817 C 334.005 289.817 335.64 291.453 335.64 293.468 L 335.64 298.976 C 335.64 300.991 334.005 302.626 331.99 302.626 L 53.651 302.626 C 51.636 302.626 50 300.991 50 298.976 L 50 293.468 C 50 291.453 51.636 289.817 53.651 289.817 Z" style="stroke:none;fill:#575757;stroke-miterlimit:10;"/></g><g style="mix-blend-mode:normal;" opacity="0.2"><path d="M 53.651 321.84 L 331.99 321.84 C 334.005 321.84 335.64 323.476 335.64 325.49 L 335.64 330.998 C 335.64 333.013 334.005 334.649 331.99 334.649 L 53.651 334.649 C 51.636 334.649 50 333.013 50 330.998 L 50 325.49 C 50 323.476 51.636 321.84 53.651 321.84 Z" style="stroke:none;fill:#575757;stroke-miterlimit:10;"/></g><g style="mix-blend-mode:normal;" opacity="0.2"><path d="M 53.651 352.581 L 280.754 352.581 C 282.769 352.581 284.404 354.217 284.404 356.232 L 284.404 361.74 C 284.404 363.755 282.769 365.39 280.754 365.39 L 53.651 365.39 C 51.636 365.39 50 363.755 50 361.74 L 50 356.232 C 50 354.217 51.636 352.581 53.651 352.581 Z" style="stroke:none;fill:#575757;stroke-miterlimit:10;"/></g></g></g><g><rect x="358" y="198.708" width="292.045" height="188.292" transform="matrix(1,0,0,1,0,0)" fill="rgb(235,235,235)"/><circle vector-effect="non-scaling-stroke" cx="504.02247191011503" cy="292.85393258427433" r="48.67415730337069" fill="rgb(255,255,255)"/><path d=" M 531.89 294.698 L 511.708 306.35 L 491.526 318.002 C 489.764 319.019 488.333 318.193 488.333 316.158 L 488.333 292.854 L 488.333 269.55 C 488.333 267.515 489.764 266.689 491.526 267.706 L 511.708 279.358 L 531.89 291.01 C 533.652 292.028 533.652 293.68 531.89 294.698 Z " fill="rgb(33,131,128)"/></g></g></g><path d="M 0 68 L 700 68 L 700 516.06 C 700 523.754 693.754 530 686.06 530 L 13.94 530 C 6.246 530 0 523.754 0 516.06 L 0 68 Z" style="stroke:none;fill:#FFFFFF;stroke-miterlimit:10;"/><path d=" M 574.072 414.378 L 580.539 410.645 L 571.287 405.322 L 562.034 400 L 562.017 410.674 L 562 421.348 L 568.467 417.614 L 573.668 426.621 L 579.272 423.385 L 574.072 414.378 Z " fill="rgb(0,0,0)"/><path d=" M 170.702 378.31 L 170.702 351.288 L 170.525 351.288 L 167.516 357.306 L 159.492 371.879 L 151.645 357.365 L 148.518 350.875 L 148.341 350.875 L 148.341 378.31 L 139.904 378.31 L 139.904 337.128 L 149.403 337.128 L 159.492 356.421 L 159.61 356.421 L 169.581 337.128 L 179.139 337.128 L 179.139 378.31 L 170.702 378.31 L 170.702 378.31 Z  M 222.917 378.31 L 213.595 378.31 L 210.645 368.516 L 196.898 368.516 L 193.948 378.31 L 184.862 378.31 L 198.432 337.128 L 209.524 337.128 L 222.917 378.31 L 222.917 378.31 Z  M 208.462 360.905 L 203.86 345.27 L 203.565 345.27 L 199.022 360.905 L 208.462 360.905 L 208.462 360.905 Z  M 246.635 378.31 L 227.047 378.31 L 227.047 371.171 L 232.357 371.171 L 232.357 344.267 L 227.047 344.267 L 227.047 337.128 L 246.635 337.128 L 246.635 344.267 L 241.325 344.267 L 241.325 371.171 L 246.635 371.171 L 246.635 378.31 L 246.635 378.31 Z  M 277.964 378.31 L 266.695 358.84 L 262.742 350.58 L 262.565 350.58 L 262.565 378.31 L 254.128 378.31 L 254.128 337.128 L 263.922 337.128 L 275.191 356.598 L 279.144 364.858 L 279.321 364.858 L 279.321 337.128 L 287.758 337.128 L 287.758 378.31 L 277.964 378.31 L 277.964 378.31 Z  M 325.164 345.093 L 314.013 345.093 L 314.013 378.31 L 305.045 378.31 L 305.045 345.093 L 293.894 345.093 L 293.894 337.128 L 325.164 337.128 L 325.164 345.093 L 325.164 345.093 Z  M 359.325 378.31 L 331.3 378.31 L 331.3 337.128 L 359.325 337.128 L 359.325 345.093 L 340.268 345.093 L 340.268 353.471 L 356.611 353.471 L 356.611 361.436 L 340.268 361.436 L 340.268 370.345 L 359.325 370.345 L 359.325 378.31 L 359.325 378.31 Z  M 390.949 378.31 L 379.68 358.84 L 375.727 350.58 L 375.55 350.58 L 375.55 378.31 L 367.113 378.31 L 367.113 337.128 L 376.907 337.128 L 388.176 356.598 L 392.129 364.858 L 392.306 364.858 L 392.306 337.128 L 400.743 337.128 L 400.743 378.31 L 390.949 378.31 L 390.949 378.31 Z  M 444.521 378.31 L 435.199 378.31 L 432.249 368.516 L 418.502 368.516 L 415.552 378.31 L 406.466 378.31 L 420.036 337.128 L 431.128 337.128 L 444.521 378.31 L 444.521 378.31 Z  M 430.066 360.905 L 425.464 345.27 L 425.169 345.27 L 420.626 360.905 L 430.066 360.905 L 430.066 360.905 Z  M 474.08 378.31 L 462.811 358.84 L 458.858 350.58 L 458.681 350.58 L 458.681 378.31 L 450.244 378.31 L 450.244 337.128 L 460.038 337.128 L 471.307 356.598 L 475.26 364.858 L 475.437 364.858 L 475.437 337.128 L 483.874 337.128 L 483.874 378.31 L 474.08 378.31 L 474.08 378.31 Z  M 509.598 379.018 L 509.598 379.018 L 509.598 379.018 Q 505.409 379.018 502.046 377.691 L 502.046 377.691 L 502.046 377.691 Q 498.683 376.363 496.323 373.738 L 496.323 373.738 L 496.323 373.738 Q 493.963 371.112 492.665 367.189 L 492.665 367.189 L 492.665 367.189 Q 491.367 363.265 491.367 358.014 L 491.367 358.014 L 491.367 358.014 Q 491.367 352.822 492.665 348.781 L 492.665 348.781 L 492.665 348.781 Q 493.963 344.739 496.323 341.996 L 496.323 341.996 L 496.323 341.996 Q 498.683 339.252 502.046 337.836 L 502.046 337.836 L 502.046 337.836 Q 505.409 336.42 509.598 336.42 L 509.598 336.42 L 509.598 336.42 Q 515.321 336.42 519.038 338.751 L 519.038 338.751 L 519.038 338.751 Q 522.755 341.081 524.997 346.096 L 524.997 346.096 L 517.268 350.108 L 517.268 350.108 Q 516.442 347.512 514.702 345.949 L 514.702 345.949 L 514.702 345.949 Q 512.961 344.385 509.598 344.385 L 509.598 344.385 L 509.598 344.385 Q 505.645 344.385 503.256 346.952 L 503.256 346.952 L 503.256 346.952 Q 500.866 349.518 500.866 354.415 L 500.866 354.415 L 500.866 361.023 L 500.866 361.023 Q 500.866 365.92 503.256 368.487 L 503.256 368.487 L 503.256 368.487 Q 505.645 371.053 509.598 371.053 L 509.598 371.053 L 509.598 371.053 Q 512.902 371.053 514.879 369.254 L 514.879 369.254 L 514.879 369.254 Q 516.855 367.454 517.799 364.917 L 517.799 364.917 L 525.115 369.165 L 525.115 369.165 Q 522.814 373.885 519.068 376.452 L 519.068 376.452 L 519.068 376.452 Q 515.321 379.018 509.598 379.018 Z  M 559.394 378.31 L 531.369 378.31 L 531.369 337.128 L 559.394 337.128 L 559.394 345.093 L 540.337 345.093 L 540.337 353.471 L 556.68 353.471 L 556.68 361.436 L 540.337 361.436 L 540.337 370.345 L 559.394 370.345 L 559.394 378.31 L 559.394 378.31 Z  M 253.125 252.758 L 261.857 252.758 L 261.857 278.01 L 261.857 278.01 Q 261.857 282.376 263.568 284.53 L 263.568 284.53 L 263.568 284.53 Q 265.279 286.683 269.291 286.683 L 269.291 286.683 L 269.291 286.683 Q 273.303 286.683 275.014 284.53 L 275.014 284.53 L 275.014 284.53 Q 276.725 282.376 276.725 278.01 L 276.725 278.01 L 276.725 252.758 L 285.457 252.758 L 285.457 277.066 L 285.457 277.066 Q 285.457 281.609 284.602 284.943 L 284.602 284.943 L 284.602 284.943 Q 283.746 288.276 281.799 290.43 L 281.799 290.43 L 281.799 290.43 Q 279.852 292.583 276.784 293.616 L 276.784 293.616 L 276.784 293.616 Q 273.716 294.648 269.291 294.648 L 269.291 294.648 L 269.291 294.648 Q 264.866 294.648 261.798 293.616 L 261.798 293.616 L 261.798 293.616 Q 258.73 292.583 256.783 290.43 L 256.783 290.43 L 256.783 290.43 Q 254.836 288.276 253.98 284.943 L 253.98 284.943 L 253.98 284.943 Q 253.125 281.609 253.125 277.066 L 253.125 277.066 L 253.125 252.758 L 253.125 252.758 Z  M 318.143 293.94 L 306.874 274.47 L 302.921 266.21 L 302.744 266.21 L 302.744 293.94 L 294.307 293.94 L 294.307 252.758 L 304.101 252.758 L 315.37 272.228 L 319.323 280.488 L 319.5 280.488 L 319.5 252.758 L 327.937 252.758 L 327.937 293.94 L 318.143 293.94 L 318.143 293.94 Z  M 337.023 293.94 L 337.023 252.758 L 352.54 252.758 L 352.54 252.758 Q 356.611 252.758 359.974 254.056 L 359.974 254.056 L 359.974 254.056 Q 363.337 255.354 365.697 257.921 L 365.697 257.921 L 365.697 257.921 Q 368.057 260.487 369.355 264.352 L 369.355 264.352 L 369.355 264.352 Q 370.653 268.216 370.653 273.349 L 370.653 273.349 L 370.653 273.349 Q 370.653 278.482 369.355 282.347 L 369.355 282.347 L 369.355 282.347 Q 368.057 286.211 365.697 288.778 L 365.697 288.778 L 365.697 288.778 Q 363.337 291.344 359.974 292.642 L 359.974 292.642 L 359.974 292.642 Q 356.611 293.94 352.54 293.94 L 352.54 293.94 L 337.023 293.94 L 337.023 293.94 Z  M 345.991 285.975 L 352.54 285.975 L 352.54 285.975 Q 356.552 285.975 358.853 283.733 L 358.853 283.733 L 358.853 283.733 Q 361.154 281.491 361.154 276.535 L 361.154 276.535 L 361.154 270.163 L 361.154 270.163 Q 361.154 265.207 358.853 262.965 L 358.853 262.965 L 358.853 262.965 Q 356.552 260.723 352.54 260.723 L 352.54 260.723 L 345.991 260.723 L 345.991 285.975 L 345.991 285.975 Z  M 406.171 293.94 L 378.146 293.94 L 378.146 252.758 L 406.171 252.758 L 406.171 260.723 L 387.114 260.723 L 387.114 269.101 L 403.457 269.101 L 403.457 277.066 L 387.114 277.066 L 387.114 285.975 L 406.171 285.975 L 406.171 293.94 L 406.171 293.94 Z  M 422.927 278.836 L 422.927 293.94 L 413.959 293.94 L 413.959 252.758 L 433.488 252.758 L 433.488 252.758 Q 436.32 252.758 438.621 253.702 L 438.621 253.702 L 438.621 253.702 Q 440.922 254.646 442.545 256.387 L 442.545 256.387 L 442.545 256.387 Q 444.167 258.127 445.052 260.546 L 445.052 260.546 L 445.052 260.546 Q 445.937 262.965 445.937 265.915 L 445.937 265.915 L 445.937 265.915 Q 445.937 270.104 444.079 273.231 L 444.079 273.231 L 444.079 273.231 Q 442.22 276.358 438.444 277.774 L 438.444 277.774 L 446.527 293.94 L 436.556 293.94 L 429.358 278.836 L 422.927 278.836 L 422.927 278.836 Z  M 422.927 271.284 L 432.367 271.284 L 432.367 271.284 Q 434.373 271.284 435.524 270.252 L 435.524 270.252 L 435.524 270.252 Q 436.674 269.219 436.674 267.213 L 436.674 267.213 L 436.674 264.617 L 436.674 264.617 Q 436.674 262.611 435.524 261.579 L 435.524 261.579 L 435.524 261.579 Q 434.373 260.546 432.367 260.546 L 432.367 260.546 L 422.927 260.546 L 422.927 271.284 L 422.927 271.284 Z " fill="rgb(140,140,140)"/><rect x="0" y="68" width="700" height="61" transform="matrix(1,0,0,1,0,0)" fill="rgb(235,235,235)"/><g><path d="M 53.9 83.5 L 156.1 83.5 C 158.252 83.5 160 85.248 160 87.4 L 160 109.6 C 160 111.752 158.252 113.5 156.1 113.5 L 53.9 113.5 C 51.748 113.5 50 111.752 50 109.6 L 50 87.4 C 50 85.248 51.748 83.5 53.9 83.5 Z" style="stroke:none;fill:#C8C8C8;stroke-miterlimit:10;"/><path d="M 571.366 91 L 647.634 91 C 648.94 91 650 92.06 650 93.366 L 650 103.634 C 650 104.94 648.94 106 647.634 106 L 571.366 106 C 570.06 106 569 104.94 569 103.634 L 569 93.366 C 569 92.06 570.06 91 571.366 91 Z" style="stroke:none;fill:#C8C8C8;stroke-miterlimit:10;"/><path d="M 470.366 91 L 546.634 91 C 547.94 91 549 92.06 549 93.366 L 549 103.634 C 549 104.94 547.94 106 546.634 106 L 470.366 106 C 469.06 106 468 104.94 468 103.634 L 468 93.366 C 468 92.06 469.06 91 470.366 91 Z" style="stroke:none;fill:#C8C8C8;stroke-miterlimit:10;"/><path d="M 369.366 91 L 445.634 91 C 446.94 91 448 92.06 448 93.366 L 448 103.634 C 448 104.94 446.94 106 445.634 106 L 369.366 106 C 368.06 106 367 104.94 367 103.634 L 367 93.366 C 367 92.06 368.06 91 369.366 91 Z" style="stroke:none;fill:#C8C8C8;stroke-miterlimit:10;"/></g></g></svg>