<?xml version="1.0" encoding="UTF-8" standalone="no"?><!-- Generator: Gravit.io --><svg xmlns="http://www.w3.org/2000/svg" xmlns:xlink="http://www.w3.org/1999/xlink" style="isolation:isolate" viewBox="0 0 700 530" width="700pt" height="530pt"><defs><clipPath id="_clipPath_DjZKYsKlScaVemAPXYDOqgKE38fSixWS"><rect width="700" height="530"/></clipPath></defs><g clip-path="url(#_clipPath_DjZKYsKlScaVemAPXYDOqgKE38fSixWS)"><g><path d="M 0 68 L 700 68 L 700 516.06 C 700 523.754 693.754 530 686.06 530 L 13.94 530 C 6.246 530 0 523.754 0 516.06 L 0 68 Z" style="stroke:none;fill:#FFFFFF;stroke-miterlimit:10;"/><g><path d="M 700 31 L 0 31 L 0 14 C 0 6.273 6.273 0 14 0 L 686 0 C 693.727 0 700 6.273 700 14 L 700 31 Z" style="stroke:none;fill:#444E50;stroke-miterlimit:10;"/><g><circle vector-effect="non-scaling-stroke" cx="17.49999999999983" cy="15.499999999999979" r="7.5" fill="rgb(243,94,106)"/><circle vector-effect="non-scaling-stroke" cx="40.5" cy="15.499999999999979" r="7.5" fill="rgb(241,219,94)"/><circle vector-effect="non-scaling-stroke" cx="63.5" cy="15.499999999999979" r="7.5" fill="rgb(121,189,92)"/></g></g><rect x="0" y="31" width="700" height="37" transform="matrix(1,0,0,1,0,0)" fill="rgb(73,83,85)" fill-opacity="0.85"/><path d="M 22.134 39 L 606.866 39 C 613.563 39 619 43.705 619 49.5 L 619 49.5 C 619 55.295 613.563 60 606.866 60 L 22.134 60 C 15.437 60 10 55.295 10 49.5 L 10 49.5 C 10 43.705 15.437 39 22.134 39 Z" style="stroke:none;fill:#444E50;stroke-miterlimit:10;"/><path d="M 635.915 39 L 652.085 39 C 653.418 39 654.5 40.082 654.5 41.415 L 654.5 57.585 C 654.5 58.918 653.418 60 652.085 60 L 635.915 60 C 634.582 60 633.5 58.918 633.5 57.585 L 633.5 41.415 C 633.5 40.082 634.582 39 635.915 39 Z" style="stroke:none;fill:#444E50;stroke-miterlimit:10;"/><path d="M 671.415 39 L 687.585 39 C 688.918 39 690 40.082 690 41.415 L 690 57.585 C 690 58.918 688.918 60 687.585 60 L 671.415 60 C 670.082 60 669 58.918 669 57.585 L 669 41.415 C 669 40.082 670.082 39 671.415 39 Z" style="stroke:none;fill:#444E50;stroke-miterlimit:10;"/><rect x="0" y="68" width="700" height="61" transform="matrix(1,0,0,1,0,0)" fill="rgb(235,235,235)"/><g><path d="M 53.9 83.5 L 156.1 83.5 C 158.252 83.5 160 85.248 160 87.4 L 160 109.6 C 160 111.752 158.252 113.5 156.1 113.5 L 53.9 113.5 C 51.748 113.5 50 111.752 50 109.6 L 50 87.4 C 50 85.248 51.748 83.5 53.9 83.5 Z" style="stroke:none;fill:#C8C8C8;stroke-miterlimit:10;"/></g></g><path d="M 204.08 88.5 L 461.92 88.5 C 468.035 88.5 473 93.465 473 99.58 L 473 100.92 C 473 107.035 468.035 112 461.92 112 L 204.08 112 C 197.965 112 193 107.035 193 100.92 L 193 99.58 C 193 93.465 197.965 88.5 204.08 88.5 Z" style="stroke:none;fill:#FFFFFF;stroke-miterlimit:10;"/><path d="M 52.76 149 L 206.24 149 C 207.763 149 209 150.237 209 151.76 L 209 158.24 C 209 159.763 207.763 161 206.24 161 L 52.76 161 C 51.237 161 50 159.763 50 158.24 L 50 151.76 C 50 150.237 51.237 149 52.76 149 Z" style="stroke:none;fill:#EBEBEB;stroke-miterlimit:10;"/><path d="M 51.04 171 L 335.96 171 C 343.709 171 350 177.291 350 185.04 L 350 264.96 C 350 272.709 343.709 279 335.96 279 L 51.04 279 C 43.291 279 37 272.709 37 264.96 L 37 185.04 C 37 177.291 43.291 171 51.04 171 Z" style="stroke:none;fill:#FFFFFF;stroke-miterlimit:10;"/><path d="M 51.04 171 L 335.96 171 C 343.709 171 350 177.291 350 185.04 L 350 264.96 C 350 272.709 343.709 279 335.96 279 L 51.04 279 C 43.291 279 37 272.709 37 264.96 L 37 185.04 C 37 177.291 43.291 171 51.04 171 Z" style="fill:none;stroke:#218380;stroke-width:6;stroke-linecap:square;stroke-miterlimit:2;"/><g><path d="M 52.8 182 L 233.2 182 C 234.745 182 236 183.255 236 184.8 L 236 195.2 C 236 196.745 234.745 198 233.2 198 L 52.8 198 C 51.255 198 50 196.745 50 195.2 L 50 184.8 C 50 183.255 51.255 182 52.8 182 Z" style="stroke:none;fill:#0D6EAB;stroke-linecap:square;stroke-miterlimit:2;"/><path d="M 52.749 209 L 190.251 209 C 191.768 209 193 210.232 193 211.749 L 193 217.251 C 193 218.768 191.768 220 190.251 220 L 52.749 220 C 51.232 220 50 218.768 50 217.251 L 50 211.749 C 50 210.232 51.232 209 52.749 209 Z" style="stroke:none;fill:#006621;stroke-linecap:square;stroke-miterlimit:2;"/><path d="M 53.656 231 L 299.344 231 C 301.362 231 303 232.638 303 234.656 L 303 238.344 C 303 240.362 301.362 242 299.344 242 L 53.656 242 C 51.638 242 50 240.362 50 238.344 L 50 234.656 C 50 232.638 51.638 231 53.656 231 Z" style="stroke:none;fill:#CECECE;stroke-linecap:square;stroke-miterlimit:2;"/><path d="M 53.554 253 L 285.446 253 C 287.408 253 289 254.592 289 256.554 L 289 260.446 C 289 262.408 287.408 264 285.446 264 L 53.554 264 C 51.592 264 50 262.408 50 260.446 L 50 256.554 C 50 254.592 51.592 253 53.554 253 Z" style="stroke:none;fill:#CECECE;stroke-linecap:square;stroke-miterlimit:2;"/></g><g><path d="M 52.8 294.667 L 233.2 294.667 C 234.745 294.667 236 295.921 236 297.467 L 236 307.867 C 236 309.412 234.745 310.667 233.2 310.667 L 52.8 310.667 C 51.255 310.667 50 309.412 50 307.867 L 50 297.467 C 50 295.921 51.255 294.667 52.8 294.667 Z" style="stroke:none;fill:#0D6EAB;stroke-linecap:square;stroke-miterlimit:2;"/><path d="M 52.749 321.667 L 190.251 321.667 C 191.768 321.667 193 322.898 193 324.416 L 193 329.918 C 193 331.435 191.768 332.667 190.251 332.667 L 52.749 332.667 C 51.232 332.667 50 331.435 50 329.918 L 50 324.416 C 50 322.898 51.232 321.667 52.749 321.667 Z" style="stroke:none;fill:#006621;stroke-linecap:square;stroke-miterlimit:2;"/><path d="M 53.656 343.667 L 299.344 343.667 C 301.362 343.667 303 345.305 303 347.323 L 303 351.01 C 303 353.028 301.362 354.667 299.344 354.667 L 53.656 354.667 C 51.638 354.667 50 353.028 50 351.01 L 50 347.323 C 50 345.305 51.638 343.667 53.656 343.667 Z" style="stroke:none;fill:#CECECE;stroke-linecap:square;stroke-miterlimit:2;"/><path d="M 53.554 365.667 L 285.446 365.667 C 287.408 365.667 289 367.259 289 369.22 L 289 373.113 C 289 375.074 287.408 376.667 285.446 376.667 L 53.554 376.667 C 51.592 376.667 50 375.074 50 373.113 L 50 369.22 C 50 367.259 51.592 365.667 53.554 365.667 Z" style="stroke:none;fill:#CECECE;stroke-linecap:square;stroke-miterlimit:2;"/></g><g><path d="M 52.8 407.333 L 233.2 407.333 C 234.745 407.333 236 408.588 236 410.133 L 236 420.533 C 236 422.079 234.745 423.333 233.2 423.333 L 52.8 423.333 C 51.255 423.333 50 422.079 50 420.533 L 50 410.133 C 50 408.588 51.255 407.333 52.8 407.333 Z" style="stroke:none;fill:#0D6EAB;stroke-linecap:square;stroke-miterlimit:2;"/><path d="M 52.749 434.333 L 190.251 434.333 C 191.768 434.333 193 435.565 193 437.082 L 193 442.584 C 193 444.102 191.768 445.333 190.251 445.333 L 52.749 445.333 C 51.232 445.333 50 444.102 50 442.584 L 50 437.082 C 50 435.565 51.232 434.333 52.749 434.333 Z" style="stroke:none;fill:#006621;stroke-linecap:square;stroke-miterlimit:2;"/><path d="M 53.656 456.333 L 299.344 456.333 C 301.362 456.333 303 457.972 303 459.99 L 303 463.677 C 303 465.695 301.362 467.333 299.344 467.333 L 53.656 467.333 C 51.638 467.333 50 465.695 50 463.677 L 50 459.99 C 50 457.972 51.638 456.333 53.656 456.333 Z" style="stroke:none;fill:#CECECE;stroke-linecap:square;stroke-miterlimit:2;"/><path d="M 53.554 478.333 L 285.446 478.333 C 287.408 478.333 289 479.926 289 481.887 L 289 485.78 C 289 487.741 287.408 489.333 285.446 489.333 L 53.554 489.333 C 51.592 489.333 50 487.741 50 485.78 L 50 481.887 C 50 479.926 51.592 478.333 53.554 478.333 Z" style="stroke:none;fill:#CECECE;stroke-linecap:square;stroke-miterlimit:2;"/></g><g><path d="M 52.8 520 L 233.2 520 C 234.745 520 236 521.255 236 522.8 L 236 533.2 C 236 534.745 234.745 536 233.2 536 L 52.8 536 C 51.255 536 50 534.745 50 533.2 L 50 522.8 C 50 521.255 51.255 520 52.8 520 Z" style="stroke:none;fill:#0D6EAB;stroke-linecap:square;stroke-miterlimit:2;"/><path d="M 52.749 547 L 190.251 547 C 191.768 547 193 548.232 193 549.749 L 193 555.251 C 193 556.768 191.768 558 190.251 558 L 52.749 558 C 51.232 558 50 556.768 50 555.251 L 50 549.749 C 50 548.232 51.232 547 52.749 547 Z" style="stroke:none;fill:#006621;stroke-linecap:square;stroke-miterlimit:2;"/><path d="M 53.656 569 L 299.344 569 C 301.362 569 303 570.638 303 572.656 L 303 576.344 C 303 578.362 301.362 580 299.344 580 L 53.656 580 C 51.638 580 50 578.362 50 576.344 L 50 572.656 C 50 570.638 51.638 569 53.656 569 Z" style="stroke:none;fill:#CECECE;stroke-linecap:square;stroke-miterlimit:2;"/><path d="M 53.554 591 L 285.446 591 C 287.408 591 289 592.592 289 594.554 L 289 598.446 C 289 600.408 287.408 602 285.446 602 L 53.554 602 C 51.592 602 50 600.408 50 598.446 L 50 594.554 C 50 592.592 51.592 591 53.554 591 Z" style="stroke:none;fill:#CECECE;stroke-linecap:square;stroke-miterlimit:2;"/></g><path d=" M 411.527 247.968 L 411.517 234.231 L 401.508 235.996 L 401.517 249.733 L 397.357 250.467 L 397.348 236.73 L 389.028 238.197 L 388.34 234.297 L 397.31 232.715 L 397.205 221.475 L 388.95 222.93 L 388.262 219.03 L 397.232 217.449 L 397.157 203.723 L 401.317 202.99 L 401.392 216.715 L 411.401 214.95 L 411.327 201.225 L 415.487 200.491 L 415.561 214.217 L 423.881 212.75 L 424.569 216.65 L 415.534 218.243 L 415.639 229.483 L 423.959 228.016 L 424.647 231.916 L 415.677 233.498 L 415.687 247.235 L 411.527 247.968 L 411.527 247.968 Z  M 401.47 231.982 L 411.48 230.217 L 411.374 218.976 L 401.364 220.741 L 401.47 231.982 L 401.47 231.982 Z  M 469.374 237.768 L 439.541 243.029 L 438.693 238.219 L 451.367 235.984 L 444.926 199.455 L 444.471 199.536 L 434.911 212.212 L 431.119 209.329 L 441.161 195.964 L 449.675 194.463 L 456.827 235.021 L 468.526 232.958 L 469.374 237.768 L 469.374 237.768 Z " fill="rgb(33,131,128)"/><path d=" M 250.533 212.758 L 257 209.024 L 247.747 203.701 L 238.495 198.379 L 238.478 209.053 L 238.461 219.727 L 244.928 215.993 L 250.128 225 L 255.733 221.764 L 250.533 212.758 Z " fill="rgb(0,0,0)"/></g></svg>