<?xml version="1.0" encoding="UTF-8" standalone="no"?><!-- Generator: Gravit.io --><svg xmlns="http://www.w3.org/2000/svg" xmlns:xlink="http://www.w3.org/1999/xlink" style="isolation:isolate" viewBox="0 0 700 530" width="700pt" height="530pt"><defs><clipPath id="_clipPath_FEsBvd0vI5f0Z5ygGEepTgkVr5eVWspk"><rect width="700" height="530"/></clipPath></defs><g clip-path="url(#_clipPath_FEsBvd0vI5f0Z5ygGEepTgkVr5eVWspk)"><g><path d="M 0 31 L 700 31 L 700 515.513 C 700 523.509 693.509 530 685.513 530 L 14.487 530 C 6.491 530 0 523.509 0 515.513 L 0 31 Z" style="stroke:none;fill:#FFFFFF;stroke-miterlimit:10;"/><g><path d="M 700 31 L 0 31 L 0 14 C 0 6.273 6.273 0 14 0 L 686 0 C 693.727 0 700 6.273 700 14 L 700 31 Z" style="stroke:none;fill:#444E50;stroke-miterlimit:10;"/><g><circle vector-effect="non-scaling-stroke" cx="17.49999999999983" cy="15.499999999999979" r="7.5" fill="rgb(243,94,106)"/><circle vector-effect="non-scaling-stroke" cx="40.5" cy="15.499999999999979" r="7.5" fill="rgb(241,219,94)"/><circle vector-effect="non-scaling-stroke" cx="63.5" cy="15.499999999999979" r="7.5" fill="rgb(121,189,92)"/></g></g></g><path d=" M 583.533 441.124 L 590 437.39 L 580.747 432.067 L 571.495 426.745 L 571.478 437.419 L 571.461 448.093 L 577.928 444.359 L 583.128 453.366 L 588.733 450.13 L 583.533 441.124 Z " fill="rgb(0,0,0)"/><g><g><path d="M 290.054 232.233 L 409.946 232.233 C 413.839 232.233 417 235.393 417 239.287 L 417 265.489 C 417 269.382 413.839 272.543 409.946 272.543 L 290.054 272.543 C 286.161 272.543 283 269.382 283 265.489 L 283 239.287 C 283 235.393 286.161 232.233 290.054 232.233 Z" style="stroke:none;fill:#218380;stroke-miterlimit:10;"/><path d=" M 320.36 259.389 L 317.054 259.389 L 314.052 246.127 L 316.902 246.127 L 318.156 252.492 L 318.859 256.178 L 318.916 256.178 L 319.752 252.492 L 321.215 246.127 L 324.369 246.127 L 325.851 252.492 L 326.668 256.178 L 326.725 256.178 L 327.428 252.492 L 328.701 246.127 L 331.437 246.127 L 328.359 259.389 L 325.072 259.389 L 323.4 252.207 L 322.754 249.3 L 322.697 249.3 L 322.032 252.207 L 320.36 259.389 Z  M 336.985 259.617 L 336.985 259.617 L 336.985 259.617 Q 335.845 259.617 334.952 259.247 L 334.952 259.247 L 334.952 259.247 Q 334.059 258.876 333.442 258.202 L 333.442 258.202 L 333.442 258.202 Q 332.824 257.527 332.511 256.558 L 332.511 256.558 L 332.511 256.558 Q 332.197 255.589 332.197 254.392 L 332.197 254.392 L 332.197 254.392 Q 332.197 253.214 332.501 252.255 L 332.501 252.255 L 332.501 252.255 Q 332.805 251.295 333.404 250.611 L 333.404 250.611 L 333.404 250.611 Q 334.002 249.927 334.876 249.557 L 334.876 249.557 L 334.876 249.557 Q 335.75 249.186 336.871 249.186 L 336.871 249.186 L 336.871 249.186 Q 338.106 249.186 338.99 249.604 L 338.99 249.604 L 338.99 249.604 Q 339.873 250.022 340.434 250.725 L 340.434 250.725 L 340.434 250.725 Q 340.994 251.428 341.251 252.35 L 341.251 252.35 L 341.251 252.35 Q 341.507 253.271 341.507 254.278 L 341.507 254.278 L 341.507 255.114 L 335.104 255.114 L 335.104 255.265 L 335.104 255.265 Q 335.104 256.245 335.636 256.82 L 335.636 256.82 L 335.636 256.82 Q 336.168 257.394 337.308 257.394 L 337.308 257.394 L 337.308 257.394 Q 338.182 257.394 338.733 257.046 L 338.733 257.046 L 338.733 257.046 Q 339.284 256.697 339.759 256.207 L 339.759 256.207 L 341.165 257.96 L 341.165 257.96 Q 340.5 258.741 339.427 259.179 L 339.427 259.179 L 339.427 259.179 Q 338.353 259.617 336.985 259.617 Z  M 336.928 251.257 L 336.928 251.257 L 336.928 251.257 Q 336.073 251.257 335.589 251.818 L 335.589 251.818 L 335.589 251.818 Q 335.104 252.378 335.104 253.309 L 335.104 253.309 L 335.104 253.461 L 338.6 253.461 L 338.6 253.29 L 338.6 253.29 Q 338.6 252.378 338.192 251.818 L 338.192 251.818 L 338.192 251.818 Q 337.783 251.257 336.928 251.257 Z  M 343.502 259.389 L 343.502 245.329 L 346.314 245.329 L 346.314 251.086 L 346.409 251.086 L 346.409 251.086 Q 346.618 250.25 347.369 249.718 L 347.369 249.718 L 347.369 249.718 Q 348.119 249.186 349.088 249.186 L 349.088 249.186 L 349.088 249.186 Q 350.988 249.186 351.957 250.516 L 351.957 250.516 L 351.957 250.516 Q 352.926 251.846 352.926 254.392 L 352.926 254.392 L 352.926 254.392 Q 352.926 256.938 351.957 258.278 L 351.957 258.278 L 351.957 258.278 Q 350.988 259.617 349.088 259.617 L 349.088 259.617 L 349.088 259.617 Q 348.594 259.617 348.157 259.475 L 348.157 259.475 L 348.157 259.475 Q 347.72 259.332 347.369 259.076 L 347.369 259.076 L 347.369 259.076 Q 347.017 258.819 346.77 258.468 L 346.77 258.468 L 346.77 258.468 Q 346.523 258.116 346.409 257.717 L 346.409 257.717 L 346.314 257.717 L 346.314 259.389 L 343.502 259.389 Z  M 348.157 257.337 L 348.157 257.337 L 348.157 257.337 Q 348.955 257.337 349.478 256.777 L 349.478 256.777 L 349.478 256.777 Q 350 256.216 350 255.266 L 350 255.266 L 350 253.537 L 350 253.537 Q 350 252.587 349.478 252.027 L 349.478 252.027 L 349.478 252.027 Q 348.955 251.466 348.157 251.466 L 348.157 251.466 L 348.157 251.466 Q 347.359 251.466 346.837 251.856 L 346.837 251.856 L 346.837 251.856 Q 346.314 252.245 346.314 252.929 L 346.314 252.929 L 346.314 255.874 L 346.314 255.874 Q 346.314 256.558 346.837 256.948 L 346.837 256.948 L 346.837 256.948 Q 347.359 257.337 348.157 257.337 Z  M 358.436 259.617 L 358.436 259.617 L 358.436 259.617 Q 356.992 259.617 356.004 259.152 L 356.004 259.152 L 356.004 259.152 Q 355.016 258.686 354.237 257.831 L 354.237 257.831 L 355.89 256.159 L 355.89 256.159 Q 356.422 256.748 357.068 257.09 L 357.068 257.09 L 357.068 257.09 Q 357.714 257.432 358.531 257.432 L 358.531 257.432 L 358.531 257.432 Q 359.367 257.432 359.69 257.176 L 359.69 257.176 L 359.69 257.176 Q 360.013 256.919 360.013 256.482 L 360.013 256.482 L 360.013 256.482 Q 360.013 255.779 359.006 255.646 L 359.006 255.646 L 357.923 255.513 L 357.923 255.513 Q 354.56 255.095 354.56 252.435 L 354.56 252.435 L 354.56 252.435 Q 354.56 251.713 354.836 251.115 L 354.836 251.115 L 354.836 251.115 Q 355.111 250.516 355.615 250.089 L 355.615 250.089 L 355.615 250.089 Q 356.118 249.661 356.831 249.424 L 356.831 249.424 L 356.831 249.424 Q 357.543 249.186 358.436 249.186 L 358.436 249.186 L 358.436 249.186 Q 359.215 249.186 359.814 249.291 L 359.814 249.291 L 359.814 249.291 Q 360.412 249.395 360.878 249.595 L 360.878 249.595 L 360.878 249.595 Q 361.343 249.794 361.733 250.089 L 361.733 250.089 L 361.733 250.089 Q 362.122 250.383 362.502 250.744 L 362.502 250.744 L 360.887 252.397 L 360.887 252.397 Q 360.412 251.922 359.814 251.647 L 359.814 251.647 L 359.814 251.647 Q 359.215 251.371 358.588 251.371 L 358.588 251.371 L 358.588 251.371 Q 357.866 251.371 357.562 251.599 L 357.562 251.599 L 357.562 251.599 Q 357.258 251.827 357.258 252.207 L 357.258 252.207 L 357.258 252.207 Q 357.258 252.606 357.477 252.825 L 357.477 252.825 L 357.477 252.825 Q 357.695 253.043 358.303 253.138 L 358.303 253.138 L 359.424 253.29 L 359.424 253.29 Q 362.711 253.727 362.711 256.292 L 362.711 256.292 L 362.711 256.292 Q 362.711 257.014 362.407 257.622 L 362.407 257.622 L 362.407 257.622 Q 362.103 258.23 361.543 258.677 L 361.543 258.677 L 361.543 258.677 Q 360.982 259.123 360.194 259.37 L 360.194 259.37 L 360.194 259.37 Q 359.405 259.617 358.436 259.617 Z  M 366.036 248.35 L 366.036 248.35 L 366.036 248.35 Q 365.181 248.35 364.792 247.961 L 364.792 247.961 L 364.792 247.961 Q 364.402 247.571 364.402 246.963 L 364.402 246.963 L 364.402 246.545 L 364.402 246.545 Q 364.402 245.937 364.792 245.548 L 364.792 245.548 L 364.792 245.548 Q 365.181 245.158 366.036 245.158 L 366.036 245.158 L 366.036 245.158 Q 366.891 245.158 367.281 245.548 L 367.281 245.548 L 367.281 245.548 Q 367.67 245.937 367.67 246.545 L 367.67 246.545 L 367.67 246.963 L 367.67 246.963 Q 367.67 247.571 367.281 247.961 L 367.281 247.961 L 367.281 247.961 Q 366.891 248.35 366.036 248.35 Z  M 364.63 259.389 L 364.63 249.414 L 367.442 249.414 L 367.442 259.389 L 364.63 259.389 Z  M 375.232 259.389 L 373.56 259.389 L 373.56 259.389 Q 372.097 259.389 371.347 258.648 L 371.347 258.648 L 371.347 258.648 Q 370.596 257.907 370.596 256.482 L 370.596 256.482 L 370.596 251.599 L 369.19 251.599 L 369.19 249.414 L 369.893 249.414 L 369.893 249.414 Q 370.463 249.414 370.672 249.139 L 370.672 249.139 L 370.672 249.139 Q 370.881 248.863 370.881 248.35 L 370.881 248.35 L 370.881 246.716 L 373.408 246.716 L 373.408 249.414 L 375.384 249.414 L 375.384 251.599 L 373.408 251.599 L 373.408 257.204 L 375.232 257.204 L 375.232 259.389 Z  M 381.426 259.617 L 381.426 259.617 L 381.426 259.617 Q 380.286 259.617 379.393 259.247 L 379.393 259.247 L 379.393 259.247 Q 378.5 258.876 377.883 258.202 L 377.883 258.202 L 377.883 258.202 Q 377.265 257.527 376.952 256.558 L 376.952 256.558 L 376.952 256.558 Q 376.638 255.589 376.638 254.392 L 376.638 254.392 L 376.638 254.392 Q 376.638 253.214 376.942 252.255 L 376.942 252.255 L 376.942 252.255 Q 377.246 251.295 377.845 250.611 L 377.845 250.611 L 377.845 250.611 Q 378.443 249.927 379.317 249.557 L 379.317 249.557 L 379.317 249.557 Q 380.191 249.186 381.312 249.186 L 381.312 249.186 L 381.312 249.186 Q 382.547 249.186 383.431 249.604 L 383.431 249.604 L 383.431 249.604 Q 384.314 250.022 384.875 250.725 L 384.875 250.725 L 384.875 250.725 Q 385.435 251.428 385.692 252.35 L 385.692 252.35 L 385.692 252.35 Q 385.948 253.271 385.948 254.278 L 385.948 254.278 L 385.948 255.114 L 379.545 255.114 L 379.545 255.265 L 379.545 255.265 Q 379.545 256.245 380.077 256.82 L 380.077 256.82 L 380.077 256.82 Q 380.609 257.394 381.749 257.394 L 381.749 257.394 L 381.749 257.394 Q 382.623 257.394 383.174 257.046 L 383.174 257.046 L 383.174 257.046 Q 383.725 256.697 384.2 256.207 L 384.2 256.207 L 385.606 257.96 L 385.606 257.96 Q 384.941 258.741 383.868 259.179 L 383.868 259.179 L 383.868 259.179 Q 382.794 259.617 381.426 259.617 Z  M 381.369 251.257 L 381.369 251.257 L 381.369 251.257 Q 380.514 251.257 380.03 251.818 L 380.03 251.818 L 380.03 251.818 Q 379.545 252.378 379.545 253.309 L 379.545 253.309 L 379.545 253.461 L 383.041 253.461 L 383.041 253.29 L 383.041 253.29 Q 383.041 252.378 382.633 251.818 L 382.633 251.818 L 382.633 251.818 Q 382.224 251.257 381.369 251.257 Z " fill="rgb(255,255,255)"/></g><path d=" M 417 252.888 Q 455.385 253.158 468 214.888 Q 479.125 181.138 523 185.888" fill="none" vector-effect="non-scaling-stroke" stroke-width="1" stroke="rgb(0,0,0)" stroke-linejoin="miter" stroke-linecap="square" stroke-miterlimit="3"/><path d=" M 417 252.888 Q 455.385 253.158 468 214.888 Q 479.125 181.138 523 185.888" fill="none" vector-effect="non-scaling-stroke" stroke-width="1" stroke="rgb(0,0,0)" stroke-linejoin="miter" stroke-linecap="square" stroke-miterlimit="3"/><path d=" M 371.002 272.543 Q 370.731 310.928 409.002 323.543 Q 442.752 334.668 438.002 378.543" fill="none" vector-effect="non-scaling-stroke" stroke-width="1" stroke="rgb(0,0,0)" stroke-linejoin="miter" stroke-linecap="square" stroke-miterlimit="3"/><path d=" M 417 252.892 Q 455.385 252.621 468 290.892 Q 479.125 324.642 523 319.892" fill="none" vector-effect="non-scaling-stroke" stroke-width="1" stroke="rgb(0,0,0)" stroke-linejoin="miter" stroke-linecap="square" stroke-miterlimit="3"/><path d=" M 283 252.386 Q 244.615 252.656 232 214.386 Q 220.875 180.636 177 185.386" fill="none" vector-effect="non-scaling-stroke" stroke-width="1" stroke="rgb(0,0,0)" stroke-linejoin="miter" stroke-linecap="square" stroke-miterlimit="3"/><path d=" M 177 320.476 Q 215.385 320.746 228 282.476 Q 239.125 248.726 283 253.476" fill="none" vector-effect="non-scaling-stroke" stroke-width="1" stroke="rgb(0,0,0)" stroke-linejoin="miter" stroke-linecap="square" stroke-miterlimit="3"/><g><path d="M 50.054 165.147 L 169.946 165.147 C 173.839 165.147 177 168.307 177 172.201 L 177 198.403 C 177 202.296 173.839 205.457 169.946 205.457 L 50.054 205.457 C 46.161 205.457 43 202.296 43 198.403 L 43 172.201 C 43 168.307 46.161 165.147 50.054 165.147 Z" style="stroke:none;fill:#EBEBEB;stroke-miterlimit:10;"/><path d="M 74.13 176.846 L 145.87 176.846 C 147.598 176.846 149 178.248 149 179.976 L 149 190.628 C 149 192.355 147.598 193.758 145.87 193.758 L 74.13 193.758 C 72.402 193.758 71 192.355 71 190.628 L 71 179.976 C 71 178.248 72.402 176.846 74.13 176.846 Z" style="stroke:none;fill:#C8C8C8;stroke-miterlimit:10;"/></g><g><path d="M 50.054 300.322 L 169.946 300.322 C 173.839 300.322 177 303.483 177 307.377 L 177 333.579 C 177 337.472 173.839 340.633 169.946 340.633 L 50.054 340.633 C 46.161 340.633 43 337.472 43 333.579 L 43 307.377 C 43 303.483 46.161 300.322 50.054 300.322 Z" style="stroke:none;fill:#EBEBEB;stroke-miterlimit:10;"/><path d="M 66.918 312.022 L 153.082 312.022 C 154.969 312.022 156.5 313.553 156.5 315.439 L 156.5 325.516 C 156.5 327.402 154.969 328.934 153.082 328.934 L 66.918 328.934 C 65.031 328.934 63.5 327.402 63.5 325.516 L 63.5 315.439 C 63.5 313.553 65.031 312.022 66.918 312.022 Z" style="stroke:none;fill:#C8C8C8;stroke-miterlimit:10;"/></g><g><path d="M 530.054 300.322 L 649.946 300.322 C 653.839 300.322 657 303.483 657 307.377 L 657 333.579 C 657 337.472 653.839 340.633 649.946 340.633 L 530.054 340.633 C 526.161 340.633 523 337.472 523 333.579 L 523 307.377 C 523 303.483 526.161 300.322 530.054 300.322 Z" style="stroke:none;fill:#EBEBEB;stroke-miterlimit:10;"/><path d="M 569.877 312.022 L 610.123 312.022 C 611.435 312.022 612.5 313.087 612.5 314.399 L 612.5 326.556 C 612.5 327.868 611.435 328.934 610.123 328.934 L 569.877 328.934 C 568.565 328.934 567.5 327.868 567.5 326.556 L 567.5 314.399 C 567.5 313.087 568.565 312.022 569.877 312.022 Z" style="stroke:none;fill:#C8C8C8;stroke-miterlimit:10;"/></g><g><path d="M 530.054 165.147 L 649.946 165.147 C 653.839 165.147 657 168.307 657 172.201 L 657 198.403 C 657 202.296 653.839 205.457 649.946 205.457 L 530.054 205.457 C 526.161 205.457 523 202.296 523 198.403 L 523 172.201 C 523 168.307 526.161 165.147 530.054 165.147 Z" style="stroke:none;fill:#EBEBEB;stroke-miterlimit:10;"/><path d="M 562.745 176.846 L 617.255 176.846 C 618.77 176.846 620 178.076 620 179.591 L 620 191.013 C 620 192.528 618.77 193.758 617.255 193.758 L 562.745 193.758 C 561.23 193.758 560 192.528 560 191.013 L 560 179.591 C 560 178.076 561.23 176.846 562.745 176.846 Z" style="stroke:none;fill:#C8C8C8;stroke-miterlimit:10;"/></g><g><path d="M 378.054 378.543 L 497.946 378.543 C 501.839 378.543 505 381.704 505 385.597 L 505 411.799 C 505 415.693 501.839 418.853 497.946 418.853 L 378.054 418.853 C 374.161 418.853 371 415.693 371 411.799 L 371 385.597 C 371 381.704 374.161 378.543 378.054 378.543 Z" style="stroke:none;fill:#EBEBEB;stroke-miterlimit:10;"/><path d="M 410.745 390.242 L 465.255 390.242 C 466.77 390.242 468 391.472 468 392.987 L 468 404.409 C 468 405.924 466.77 407.154 465.255 407.154 L 410.745 407.154 C 409.23 407.154 408 405.924 408 404.409 L 408 392.987 C 408 391.472 409.23 390.242 410.745 390.242 Z" style="stroke:none;fill:#C8C8C8;stroke-miterlimit:10;"/></g><path d=" M 328.998 272.478 Q 329.269 310.863 290.998 323.478 Q 257.248 334.603 261.998 378.478" fill="none" vector-effect="non-scaling-stroke" stroke-width="1" stroke="rgb(0,0,0)" stroke-linejoin="miter" stroke-linecap="square" stroke-miterlimit="3"/><g><path d="M 321.946 378.478 L 202.054 378.478 C 198.161 378.478 195 381.639 195 385.532 L 195 411.734 C 195 415.627 198.161 418.788 202.054 418.788 L 321.946 418.788 C 325.839 418.788 329 415.627 329 411.734 L 329 385.532 C 329 381.639 325.839 378.478 321.946 378.478 Z" style="stroke:none;fill:#EBEBEB;stroke-miterlimit:10;"/><path d="M 289.255 390.177 L 234.745 390.177 C 233.23 390.177 232 391.407 232 392.922 L 232 404.344 C 232 405.859 233.23 407.089 234.745 407.089 L 289.255 407.089 C 290.77 407.089 292 405.859 292 404.344 L 292 392.922 C 292 391.407 290.77 390.177 289.255 390.177 Z" style="stroke:none;fill:#C8C8C8;stroke-miterlimit:10;"/></g></g></g></svg>