<?xml version="1.0" encoding="UTF-8" standalone="no"?><!-- Generator: Gravit.io --><svg xmlns="http://www.w3.org/2000/svg" xmlns:xlink="http://www.w3.org/1999/xlink" style="isolation:isolate" viewBox="0 0 1440 633" width="1440pt" height="633pt"><defs><clipPath id="_clipPath_Hol5pLcGbiY8NPYuJ7sxT8bjzJXzAZwq"><rect width="1440" height="633"/></clipPath></defs><g clip-path="url(#_clipPath_Hol5pLcGbiY8NPYuJ7sxT8bjzJXzAZwq)"><rect width="1440" height="633" style="fill:rgb(143,49,86)"/><g><g style="mix-blend-mode:normal;" opacity="0.2"><path d="M 684.525 312.621 L 786.156 294.696 C 786.947 294.556 787.703 295.085 787.843 295.877 L 804.192 388.627 C 804.331 389.418 803.802 390.174 803.011 390.314 L 701.38 408.24 C 700.588 408.379 699.833 407.85 699.693 407.059 L 683.344 314.308 C 683.204 313.517 683.734 312.761 684.525 312.621 Z" style="stroke:none;fill:#000000;stroke-miterlimit:10;"/></g><g style="mix-blend-mode:normal;" opacity="0.2"><path d="M 133.704 153.832 L 235.334 135.906 C 236.126 135.766 236.882 136.295 237.021 137.087 L 253.37 229.837 C 253.51 230.628 252.98 231.384 252.189 231.524 L 150.558 249.45 C 149.767 249.589 149.011 249.06 148.871 248.269 L 132.522 155.519 C 132.383 154.727 132.912 153.971 133.704 153.832 Z" style="stroke:none;fill:#000000;stroke-miterlimit:10;"/></g><g style="mix-blend-mode:normal;" opacity="0.2"><path d="M 1187.811 219.037 L 1289.442 201.111 C 1290.233 200.972 1290.989 201.501 1291.129 202.292 L 1307.478 295.043 C 1307.617 295.834 1307.088 296.59 1306.296 296.73 L 1204.666 314.655 C 1203.874 314.795 1203.118 314.266 1202.979 313.474 L 1186.63 220.724 C 1186.49 219.933 1187.02 219.177 1187.811 219.037 Z" style="stroke:none;fill:#000000;stroke-miterlimit:10;"/></g><g style="mix-blend-mode:normal;" opacity="0.2"><path d="M 1010.858 488.859 L 1112.489 470.933 C 1113.28 470.794 1114.036 471.323 1114.176 472.115 L 1130.525 564.865 C 1130.665 565.656 1130.135 566.412 1129.344 566.552 L 1027.713 584.478 C 1026.922 584.617 1026.166 584.088 1026.026 583.297 L 1009.677 490.546 C 1009.538 489.755 1010.067 488.999 1010.858 488.859 Z" style="stroke:none;fill:#000000;stroke-miterlimit:10;"/></g><g style="mix-blend-mode:normal;" opacity="0.2"><path d="M 563.633 60.448 L 665.263 42.522 C 666.055 42.383 666.811 42.912 666.95 43.703 L 683.299 136.454 C 683.439 137.245 682.91 138.001 682.118 138.141 L 580.487 156.067 C 579.696 156.206 578.94 155.677 578.801 154.885 L 562.451 62.135 C 562.312 61.344 562.841 60.588 563.633 60.448 Z" style="stroke:none;fill:#000000;stroke-miterlimit:10;"/></g><g style="mix-blend-mode:normal;" opacity="0.2"><path d="M 300.633 450.065 L 402.263 432.139 C 403.055 431.999 403.811 432.529 403.95 433.32 L 420.299 526.07 C 420.439 526.862 419.909 527.618 419.118 527.757 L 317.487 545.683 C 316.696 545.823 315.94 545.294 315.8 544.502 L 299.451 451.752 C 299.312 450.96 299.841 450.205 300.633 450.065 Z" style="stroke:none;fill:#000000;stroke-miterlimit:10;"/></g></g></g></svg>