<?xml version="1.0" encoding="UTF-8" standalone="no"?><!-- Generator: Gravit.io --><svg xmlns="http://www.w3.org/2000/svg" xmlns:xlink="http://www.w3.org/1999/xlink" style="isolation:isolate" viewBox="0 0 1440 633" width="1440pt" height="633pt"><defs><clipPath id="_clipPath_5nrgpCEVFLtOlWxGW19CkKzYja6SttLj"><rect width="1440" height="633"/></clipPath></defs><g clip-path="url(#_clipPath_5nrgpCEVFLtOlWxGW19CkKzYja6SttLj)"><rect width="1440" height="633" style="fill:rgb(143,49,86)"/><g><g style="mix-blend-mode:normal;" opacity="0.2"><path d="M 672.527 466.287 L 774.158 448.361 C 774.949 448.222 775.705 448.751 775.845 449.542 L 792.194 542.292 C 792.333 543.084 791.804 543.84 791.012 543.979 L 689.382 561.905 C 688.59 562.045 687.834 561.516 687.695 560.724 L 671.346 467.974 C 671.206 467.183 671.736 466.427 672.527 466.287 Z" style="stroke:none;fill:#000000;stroke-miterlimit:10;"/></g><g style="mix-blend-mode:normal;" opacity="0.2"><path d="M 628.705 89.021 L 730.336 71.095 C 731.127 70.955 731.883 71.484 732.022 72.276 L 748.372 165.026 C 748.511 165.817 747.982 166.573 747.19 166.713 L 645.56 184.639 C 644.768 184.778 644.012 184.249 643.873 183.458 L 627.524 90.708 C 627.384 89.916 627.913 89.16 628.705 89.021 Z" style="stroke:none;fill:#000000;stroke-miterlimit:10;"/></g><g style="mix-blend-mode:normal;" opacity="0.2"><path d="M 1198.437 438.796 L 1300.067 420.87 C 1300.859 420.73 1301.615 421.26 1301.754 422.051 L 1318.103 514.801 C 1318.243 515.593 1317.714 516.349 1316.922 516.488 L 1215.291 534.414 C 1214.5 534.554 1213.744 534.024 1213.605 533.233 L 1197.255 440.483 C 1197.116 439.691 1197.645 438.935 1198.437 438.796 Z" style="stroke:none;fill:#000000;stroke-miterlimit:10;"/></g><g style="mix-blend-mode:normal;" opacity="0.2"><path d="M 1027.544 184.408 L 1129.175 166.482 C 1129.966 166.343 1130.722 166.872 1130.862 167.663 L 1147.211 260.414 C 1147.35 261.205 1146.821 261.961 1146.029 262.101 L 1044.399 280.026 C 1043.607 280.166 1042.851 279.637 1042.712 278.845 L 1026.363 186.095 C 1026.223 185.304 1026.753 184.548 1027.544 184.408 Z" style="stroke:none;fill:#000000;stroke-miterlimit:10;"/></g><g style="mix-blend-mode:normal;" opacity="0.2"><path d="M 123.078 127.614 L 224.709 109.688 C 225.5 109.548 226.256 110.078 226.395 110.869 L 242.745 203.619 C 242.884 204.411 242.355 205.167 241.563 205.306 L 139.933 223.232 C 139.141 223.372 138.385 222.842 138.246 222.051 L 121.897 129.301 C 121.757 128.509 122.286 127.753 123.078 127.614 Z" style="stroke:none;fill:#000000;stroke-miterlimit:10;"/></g><g style="mix-blend-mode:normal;" opacity="0.2"><path d="M 356.544 305.207 L 458.175 287.281 C 458.966 287.142 459.722 287.671 459.862 288.462 L 476.211 381.212 C 476.35 382.004 475.821 382.76 475.029 382.899 L 373.399 400.825 C 372.607 400.965 371.851 400.436 371.712 399.644 L 355.363 306.894 C 355.223 306.103 355.753 305.347 356.544 305.207 Z" style="stroke:none;fill:#000000;stroke-miterlimit:10;"/></g></g></g></svg>