<?xml version="1.0" encoding="UTF-8" standalone="no"?><!-- Generator: Gravit.io --><svg xmlns="http://www.w3.org/2000/svg" xmlns:xlink="http://www.w3.org/1999/xlink" style="isolation:isolate" viewBox="0 0 700 530" width="700pt" height="530pt"><defs><clipPath id="_clipPath_kiG0Ly87HGunPFsYIc1xNIA3eNgbwevo"><rect width="700" height="530"/></clipPath></defs><g clip-path="url(#_clipPath_kiG0Ly87HGunPFsYIc1xNIA3eNgbwevo)"><g><path d="M 0 68 L 700 68 L 700 516.06 C 700 523.754 693.754 530 686.06 530 L 13.94 530 C 6.246 530 0 523.754 0 516.06 L 0 68 Z" style="stroke:none;fill:#FFFFFF;stroke-miterlimit:10;"/><g><path d="M 700 31 L 0 31 L 0 14 C 0 6.273 6.273 0 14 0 L 686 0 C 693.727 0 700 6.273 700 14 L 700 31 Z" style="stroke:none;fill:#444E50;stroke-miterlimit:10;"/><g><circle vector-effect="non-scaling-stroke" cx="17.49999999999983" cy="15.499999999999979" r="7.5" fill="rgb(243,94,106)"/><circle vector-effect="non-scaling-stroke" cx="40.5" cy="15.499999999999979" r="7.5" fill="rgb(241,219,94)"/><circle vector-effect="non-scaling-stroke" cx="63.5" cy="15.499999999999979" r="7.5" fill="rgb(121,189,92)"/></g></g><rect x="0" y="31" width="700" height="37" transform="matrix(1,0,0,1,0,0)" fill="rgb(73,83,85)" fill-opacity="0.85"/><g><path d="M 12.415 39 L 28.585 39 C 29.918 39 31 40.082 31 41.415 L 31 57.585 C 31 58.918 29.918 60 28.585 60 L 12.415 60 C 11.082 60 10 58.918 10 57.585 L 10 41.415 C 10 40.082 11.082 39 12.415 39 Z" style="stroke:none;fill:#444E50;stroke-miterlimit:10;"/><path d="M 51.165 39 L 67.335 39 C 68.668 39 69.75 40.082 69.75 41.415 L 69.75 57.585 C 69.75 58.918 68.668 60 67.335 60 L 51.165 60 C 49.832 60 48.75 58.918 48.75 57.585 L 48.75 41.415 C 48.75 40.082 49.832 39 51.165 39 Z" style="stroke:none;fill:#444E50;stroke-miterlimit:10;"/><path d="M 89.915 39 L 106.085 39 C 107.418 39 108.5 40.082 108.5 41.415 L 108.5 57.585 C 108.5 58.918 107.418 60 106.085 60 L 89.915 60 C 88.582 60 87.5 58.918 87.5 57.585 L 87.5 41.415 C 87.5 40.082 88.582 39 89.915 39 Z" style="stroke:none;fill:#444E50;stroke-miterlimit:10;"/><path d="M 128.665 39 L 144.835 39 C 146.168 39 147.25 40.082 147.25 41.415 L 147.25 57.585 C 147.25 58.918 146.168 60 144.835 60 L 128.665 60 C 127.332 60 126.25 58.918 126.25 57.585 L 126.25 41.415 C 126.25 40.082 127.332 39 128.665 39 Z" style="stroke:none;fill:#444E50;stroke-miterlimit:10;"/><path d="M 167.415 39 L 183.585 39 C 184.918 39 186 40.082 186 41.415 L 186 57.585 C 186 58.918 184.918 60 183.585 60 L 167.415 60 C 166.082 60 165 58.918 165 57.585 L 165 41.415 C 165 40.082 166.082 39 167.415 39 Z" style="stroke:none;fill:#444E50;stroke-miterlimit:10;"/></g><g><path d="M 593.915 39 L 610.085 39 C 611.418 39 612.5 40.082 612.5 41.415 L 612.5 57.585 C 612.5 58.918 611.418 60 610.085 60 L 593.915 60 C 592.582 60 591.5 58.918 591.5 57.585 L 591.5 41.415 C 591.5 40.082 592.582 39 593.915 39 Z" style="stroke:none;fill:#444E50;stroke-miterlimit:10;"/><path d="M 632.665 39 L 648.835 39 C 650.168 39 651.25 40.082 651.25 41.415 L 651.25 57.585 C 651.25 58.918 650.168 60 648.835 60 L 632.665 60 C 631.332 60 630.25 58.918 630.25 57.585 L 630.25 41.415 C 630.25 40.082 631.332 39 632.665 39 Z" style="stroke:none;fill:#444E50;stroke-miterlimit:10;"/><path d="M 671.415 39 L 687.585 39 C 688.918 39 690 40.082 690 41.415 L 690 57.585 C 690 58.918 688.918 60 687.585 60 L 671.415 60 C 670.082 60 669 58.918 669 57.585 L 669 41.415 C 669 40.082 670.082 39 671.415 39 Z" style="stroke:none;fill:#444E50;stroke-miterlimit:10;"/></g><g><g><circle vector-effect="non-scaling-stroke" cx="209.22468354430367" cy="360.4912530223297" r="33.50874697767023" fill="rgb(33,131,128)" fill-opacity="0.5"/><circle vector-effect="non-scaling-stroke" cx="350" cy="360.4912530223297" r="33.50874697767023" fill="rgb(33,131,128)" fill-opacity="0.5"/><circle vector-effect="non-scaling-stroke" cx="490.77531645569616" cy="360.49125302232954" r="33.508746977670256" fill="rgb(33,131,128)" fill-opacity="0.5"/><g><g style="mix-blend-mode:normal;" opacity="0.39"><path d="M 178.714 404.622 L 239.735 404.622 C 240.505 404.622 241.13 405.247 241.13 406.017 L 241.13 411.604 C 241.13 412.374 240.505 412.999 239.735 412.999 L 178.714 412.999 C 177.944 412.999 177.319 412.374 177.319 411.604 L 177.319 406.017 C 177.319 405.247 177.944 404.622 178.714 404.622 Z" style="stroke:none;fill:#575757;stroke-miterlimit:10;"/></g><g><g style="mix-blend-mode:normal;" opacity="0.2"><path d="M 169.572 423.621 L 248.877 423.621 C 249.533 423.621 250.065 424.153 250.065 424.809 L 250.065 426.833 C 250.065 427.489 249.533 428.021 248.877 428.021 L 169.572 428.021 C 168.917 428.021 168.384 427.489 168.384 426.833 L 168.384 424.809 C 168.384 424.153 168.917 423.621 169.572 423.621 Z" style="stroke:none;fill:#575757;stroke-miterlimit:10;"/></g><g style="mix-blend-mode:normal;" opacity="0.2"><path d="M 169.462 432 L 248.987 432 C 249.582 432 250.065 432.483 250.065 433.078 L 250.065 435.322 C 250.065 435.917 249.582 436.4 248.987 436.4 L 169.462 436.4 C 168.867 436.4 168.384 435.917 168.384 435.322 L 168.384 433.078 C 168.384 432.483 168.867 432 169.462 432 Z" style="stroke:none;fill:#575757;stroke-miterlimit:10;"/></g><g style="mix-blend-mode:normal;" opacity="0.2"><path d="M 169.88 440.379 L 248.569 440.379 C 249.395 440.379 250.065 441.049 250.065 441.875 L 250.065 443.283 C 250.065 444.109 249.395 444.779 248.569 444.779 L 169.88 444.779 C 169.055 444.779 168.384 444.109 168.384 443.283 L 168.384 441.875 C 168.384 441.049 169.055 440.379 169.88 440.379 Z" style="stroke:none;fill:#575757;stroke-miterlimit:10;"/></g></g></g><g><g style="mix-blend-mode:normal;" opacity="0.39"><path d="M 319.49 404.622 L 380.51 404.622 C 381.28 404.622 381.906 405.247 381.906 406.017 L 381.906 411.604 C 381.906 412.374 381.28 412.999 380.51 412.999 L 319.49 412.999 C 318.72 412.999 318.094 412.374 318.094 411.604 L 318.094 406.017 C 318.094 405.247 318.72 404.622 319.49 404.622 Z" style="stroke:none;fill:#575757;stroke-miterlimit:10;"/></g><g><g style="mix-blend-mode:normal;" opacity="0.2"><path d="M 310.348 423.621 L 389.652 423.621 C 390.308 423.621 390.84 424.153 390.84 424.809 L 390.84 426.833 C 390.84 427.489 390.308 428.021 389.652 428.021 L 310.348 428.021 C 309.692 428.021 309.16 427.489 309.16 426.833 L 309.16 424.809 C 309.16 424.153 309.692 423.621 310.348 423.621 Z" style="stroke:none;fill:#575757;stroke-miterlimit:10;"/></g><g style="mix-blend-mode:normal;" opacity="0.2"><path d="M 310.238 432 L 389.762 432 C 390.357 432 390.84 432.483 390.84 433.078 L 390.84 435.322 C 390.84 435.917 390.357 436.4 389.762 436.4 L 310.238 436.4 C 309.643 436.4 309.16 435.917 309.16 435.322 L 309.16 433.078 C 309.16 432.483 309.643 432 310.238 432 Z" style="stroke:none;fill:#575757;stroke-miterlimit:10;"/></g><g style="mix-blend-mode:normal;" opacity="0.2"><path d="M 310.656 440.379 L 389.344 440.379 C 390.17 440.379 390.84 441.049 390.84 441.875 L 390.84 443.283 C 390.84 444.109 390.17 444.779 389.344 444.779 L 310.656 444.779 C 309.83 444.779 309.16 444.109 309.16 443.283 L 309.16 441.875 C 309.16 441.049 309.83 440.379 310.656 440.379 Z" style="stroke:none;fill:#575757;stroke-miterlimit:10;"/></g></g></g><g><g style="mix-blend-mode:normal;" opacity="0.39"><path d="M 460.265 404.622 L 521.286 404.622 C 522.056 404.622 522.681 405.247 522.681 406.017 L 522.681 411.604 C 522.681 412.374 522.056 412.999 521.286 412.999 L 460.265 412.999 C 459.495 412.999 458.87 412.374 458.87 411.604 L 458.87 406.017 C 458.87 405.247 459.495 404.622 460.265 404.622 Z" style="stroke:none;fill:#575757;stroke-miterlimit:10;"/></g><g><g style="mix-blend-mode:normal;" opacity="0.2"><path d="M 451.123 423.621 L 530.428 423.621 C 531.083 423.621 531.616 424.153 531.616 424.809 L 531.616 426.833 C 531.616 427.489 531.083 428.021 530.428 428.021 L 451.123 428.021 C 450.467 428.021 449.935 427.489 449.935 426.833 L 449.935 424.809 C 449.935 424.153 450.467 423.621 451.123 423.621 Z" style="stroke:none;fill:#575757;stroke-miterlimit:10;"/></g><g style="mix-blend-mode:normal;" opacity="0.2"><path d="M 451.013 432 L 530.538 432 C 531.133 432 531.616 432.483 531.616 433.078 L 531.616 435.322 C 531.616 435.917 531.133 436.4 530.538 436.4 L 451.013 436.4 C 450.418 436.4 449.935 435.917 449.935 435.322 L 449.935 433.078 C 449.935 432.483 450.418 432 451.013 432 Z" style="stroke:none;fill:#575757;stroke-miterlimit:10;"/></g><g style="mix-blend-mode:normal;" opacity="0.2"><path d="M 451.431 440.379 L 530.12 440.379 C 530.945 440.379 531.616 441.049 531.616 441.875 L 531.616 443.283 C 531.616 444.109 530.945 444.779 530.12 444.779 L 451.431 444.779 C 450.605 444.779 449.935 444.109 449.935 443.283 L 449.935 441.875 C 449.935 441.049 450.605 440.379 451.431 440.379 Z" style="stroke:none;fill:#575757;stroke-miterlimit:10;"/></g></g></g></g><rect x="103" y="68" width="494" height="39.895" transform="matrix(1,0,0,1,0,0)" fill="rgb(235,235,235)"/><g><path d="M 156.348 78.137 L 223.188 78.137 C 224.595 78.137 225.738 79.28 225.738 80.688 L 225.738 95.207 C 225.738 96.614 224.595 97.757 223.188 97.757 L 156.348 97.757 C 154.94 97.757 153.797 96.614 153.797 95.207 L 153.797 80.688 C 153.797 79.28 154.94 78.137 156.348 78.137 Z" style="stroke:none;fill:#C8C8C8;stroke-miterlimit:10;"/><path d="M 494.776 83.042 L 544.655 83.042 C 545.509 83.042 546.203 83.736 546.203 84.59 L 546.203 91.305 C 546.203 92.159 545.509 92.852 544.655 92.852 L 494.776 92.852 C 493.921 92.852 493.228 92.159 493.228 91.305 L 493.228 84.59 C 493.228 83.736 493.921 83.042 494.776 83.042 Z" style="stroke:none;fill:#C8C8C8;stroke-miterlimit:10;"/><path d="M 428.721 83.042 L 478.6 83.042 C 479.454 83.042 480.148 83.736 480.148 84.59 L 480.148 91.305 C 480.148 92.159 479.454 92.852 478.6 92.852 L 428.721 92.852 C 427.866 92.852 427.173 92.159 427.173 91.305 L 427.173 84.59 C 427.173 83.736 427.866 83.042 428.721 83.042 Z" style="stroke:none;fill:#C8C8C8;stroke-miterlimit:10;"/><path d="M 362.666 83.042 L 412.545 83.042 C 413.399 83.042 414.093 83.736 414.093 84.59 L 414.093 91.305 C 414.093 92.159 413.399 92.852 412.545 92.852 L 362.666 92.852 C 361.812 92.852 361.118 92.159 361.118 91.305 L 361.118 84.59 C 361.118 83.736 361.812 83.042 362.666 83.042 Z" style="stroke:none;fill:#C8C8C8;stroke-miterlimit:10;"/></g><g><g><path d="M 156.104 173.617 L 284.254 173.617 C 285.527 173.617 286.561 174.651 286.561 175.924 L 286.561 198.117 C 286.561 199.39 285.527 200.424 284.254 200.424 L 156.104 200.424 C 154.831 200.424 153.797 199.39 153.797 198.117 L 153.797 175.924 C 153.797 174.651 154.831 173.617 156.104 173.617 Z" style="stroke:none;fill:#218380;stroke-miterlimit:10;"/><g><g style="mix-blend-mode:normal;" opacity="0.2"><path d="M 156.185 219.07 L 338.221 219.07 C 339.539 219.07 340.609 220.14 340.609 221.458 L 340.609 225.06 C 340.609 226.378 339.539 227.448 338.221 227.448 L 156.185 227.448 C 154.867 227.448 153.797 226.378 153.797 225.06 L 153.797 221.458 C 153.797 220.14 154.867 219.07 156.185 219.07 Z" style="stroke:none;fill:#575757;stroke-miterlimit:10;"/></g><g style="mix-blend-mode:normal;" opacity="0.2"><path d="M 156.185 240.013 L 338.221 240.013 C 339.539 240.013 340.609 241.083 340.609 242.401 L 340.609 246.003 C 340.609 247.321 339.539 248.391 338.221 248.391 L 156.185 248.391 C 154.867 248.391 153.797 247.321 153.797 246.003 L 153.797 242.401 C 153.797 241.083 154.867 240.013 156.185 240.013 Z" style="stroke:none;fill:#575757;stroke-miterlimit:10;"/></g><g style="mix-blend-mode:normal;" opacity="0.2"><path d="M 156.185 260.119 L 304.712 260.119 C 306.03 260.119 307.1 261.188 307.1 262.506 L 307.1 266.108 C 307.1 267.426 306.03 268.496 304.712 268.496 L 156.185 268.496 C 154.867 268.496 153.797 267.426 153.797 266.108 L 153.797 262.506 C 153.797 261.188 154.867 260.119 156.185 260.119 Z" style="stroke:none;fill:#575757;stroke-miterlimit:10;"/></g></g></g><g><rect x="355.232" y="159.484" width="191" height="123.145" transform="matrix(1,0,0,1,0,0)" fill="rgb(235,235,235)"/><circle vector-effect="non-scaling-stroke" cx="450.73199639691086" cy="221.05636941165622" r="31.833309628786765" fill="rgb(255,255,255)"/><path d=" M 467.852 222.9 L 455.758 229.883 L 443.664 236.865 C 441.902 237.883 440.471 237.057 440.471 235.021 L 440.471 221.056 L 440.471 207.091 C 440.471 205.056 441.902 204.23 443.664 205.248 L 455.758 212.23 L 467.852 219.213 C 469.615 220.23 469.615 221.883 467.852 222.9 Z " fill="rgb(33,131,128)"/></g></g><g><g><g style="mix-blend-mode:normal;" opacity="0.2"><path d="M 154.985 520 L 234.29 520 C 234.946 520 235.478 520.532 235.478 521.188 L 235.478 523.212 C 235.478 523.868 234.946 524.4 234.29 524.4 L 154.985 524.4 C 154.33 524.4 153.797 523.868 153.797 523.212 L 153.797 521.188 C 153.797 520.532 154.33 520 154.985 520 Z" style="stroke:none;fill:#575757;stroke-miterlimit:10;"/></g><g style="mix-blend-mode:normal;" opacity="0.2"><path d="M 154.875 528.379 L 234.4 528.379 C 234.995 528.379 235.478 528.862 235.478 529.457 L 235.478 531.701 C 235.478 532.296 234.995 532.779 234.4 532.779 L 154.875 532.779 C 154.281 532.779 153.797 532.296 153.797 531.701 L 153.797 529.457 C 153.797 528.862 154.281 528.379 154.875 528.379 Z" style="stroke:none;fill:#575757;stroke-miterlimit:10;"/></g><g style="mix-blend-mode:normal;" opacity="0.2"><path d="M 155.293 536.758 L 233.982 536.758 C 234.808 536.758 235.478 537.428 235.478 538.254 L 235.478 539.662 C 235.478 540.488 234.808 541.158 233.982 541.158 L 155.293 541.158 C 154.468 541.158 153.797 540.488 153.797 539.662 L 153.797 538.254 C 153.797 537.428 154.468 536.758 155.293 536.758 Z" style="stroke:none;fill:#575757;stroke-miterlimit:10;"/></g></g><rect x="359" y="484" width="187.232" height="72" transform="matrix(1,0,0,1,0,0)" fill="rgb(235,235,235)"/><path d="M 155.486 497.31 L 225.312 497.31 C 226.244 497.31 227 498.067 227 498.999 L 227 506.312 C 227 507.244 226.244 508 225.312 508 L 155.486 508 C 154.554 508 153.797 507.244 153.797 506.312 L 153.797 498.999 C 153.797 498.067 154.554 497.31 155.486 497.31 Z" style="stroke:none;fill:#BDBDBD;stroke-miterlimit:10;"/></g></g></g><path d=" M 525.533 502.378 L 532 498.645 L 522.747 493.322 L 513.495 488 L 513.478 498.674 L 513.461 509.348 L 519.928 505.614 L 525.128 514.621 L 530.733 511.385 L 525.533 502.378 Z " fill="rgb(0,0,0)"/><g style="mix-blend-mode:normal;" opacity="0.3"><path d="M 0 68 L 103 68 L 103 530 L 14 530 C 6.273 530 0 523.727 0 516 L 0 68 Z" style="stroke:none;fill:#EBEBEB;stroke-miterlimit:10;"/></g><g style="mix-blend-mode:normal;" opacity="0.3"><path d="M 597 68 L 700 68 L 700 516 C 700 523.727 693.727 530 686 530 L 597 530 L 597 68 Z" style="stroke:none;fill:#EBEBEB;stroke-miterlimit:10;"/></g></g></svg>