<?xml version="1.0" encoding="UTF-8" standalone="no"?><!-- Generator: Gravit.io --><svg xmlns="http://www.w3.org/2000/svg" xmlns:xlink="http://www.w3.org/1999/xlink" style="isolation:isolate" viewBox="0 0 700 530" width="700pt" height="530pt"><defs><clipPath id="_clipPath_DXW365L5WG7YB8nl5fUseCtc7KvhukSN"><rect width="700" height="530"/></clipPath></defs><g clip-path="url(#_clipPath_DXW365L5WG7YB8nl5fUseCtc7KvhukSN)"><g><path d="M 350.022 68 L 700 68 L 700 516 C 700 523.727 693.727 530 686 530 L 364.022 530 C 356.296 530 350.022 523.727 350.022 516 L 350.022 68 Z" style="stroke:none;fill:#FFFFFF;stroke-miterlimit:10;"/><g><path d="M 350 31 L 0 31 L 0 14 C 0 6.273 6.273 0 14 0 L 336 0 C 343.727 0 350 6.273 350 14 L 350 31 Z" style="stroke:none;fill:#444E50;stroke-miterlimit:10;"/><g><circle vector-effect="non-scaling-stroke" cx="17.49999999999983" cy="15.499999999999979" r="7.5" fill="rgb(243,94,106)"/><circle vector-effect="non-scaling-stroke" cx="40.5" cy="15.499999999999979" r="7.5" fill="rgb(241,219,94)"/><circle vector-effect="non-scaling-stroke" cx="63.5" cy="15.499999999999979" r="7.5" fill="rgb(121,189,92)"/></g></g><g><path d="M 700.022 31 L 350.022 31 L 350.022 14 C 350.022 6.273 356.296 0 364.022 0 L 686.022 0 C 693.749 0 700.022 6.273 700.022 14 L 700.022 31 Z" style="stroke:none;fill:#444E50;stroke-miterlimit:10;"/><g><circle vector-effect="non-scaling-stroke" cx="367.5224719101122" cy="15.500000000000012" r="7.5" fill="rgb(243,94,106)"/><circle vector-effect="non-scaling-stroke" cx="390.52247191011236" cy="15.500000000000012" r="7.5" fill="rgb(241,219,94)"/><circle vector-effect="non-scaling-stroke" cx="413.52247191011236" cy="15.500000000000016" r="7.5" fill="rgb(121,189,92)"/></g></g><rect x="350" y="31" width="350" height="37" transform="matrix(1,0,0,1,0,0)" fill="rgb(73,83,85)" fill-opacity="0.85"/><path d="M 370.5 39 L 608.5 39 C 614.295 39 619 43.705 619 49.5 L 619 49.5 C 619 55.295 614.295 60 608.5 60 L 370.5 60 C 364.705 60 360 55.295 360 49.5 L 360 49.5 C 360 43.705 364.705 39 370.5 39 Z" style="stroke:none;fill:#444E50;stroke-miterlimit:10;"/><path d="M 635.915 39 L 652.085 39 C 653.418 39 654.5 40.082 654.5 41.415 L 654.5 57.585 C 654.5 58.918 653.418 60 652.085 60 L 635.915 60 C 634.582 60 633.5 58.918 633.5 57.585 L 633.5 41.415 C 633.5 40.082 634.582 39 635.915 39 Z" style="stroke:none;fill:#444E50;stroke-miterlimit:10;"/><path d="M 671.415 39 L 687.585 39 C 688.918 39 690 40.082 690 41.415 L 690 57.585 C 690 58.918 688.918 60 687.585 60 L 671.415 60 C 670.082 60 669 58.918 669 57.585 L 669 41.415 C 669 40.082 670.082 39 671.415 39 Z" style="stroke:none;fill:#444E50;stroke-miterlimit:10;"/></g><path d=" M 641.072 322.9 L 647.539 319.166 L 638.287 313.844 L 629.034 308.522 L 629.017 319.196 L 629 329.87 L 635.467 326.136 L 640.668 335.143 L 646.272 331.907 L 641.072 322.9 Z " fill="rgb(0,0,0)"/><g><g><path d="M 26.6 47 L 68.4 47 C 69.835 47 71 48.165 71 49.6 L 71 52.4 C 71 53.835 69.835 55 68.4 55 L 26.6 55 C 25.165 55 24 53.835 24 52.4 L 24 49.6 C 24 48.165 25.165 47 26.6 47 Z" style="stroke:none;fill:#B7B7B7;stroke-miterlimit:10;"/><path d="M 82.68 47 L 224.32 47 C 225.799 47 227 48.201 227 49.68 L 227 52.32 C 227 53.799 225.799 55 224.32 55 L 82.68 55 C 81.201 55 80 53.799 80 52.32 L 80 49.68 C 80 48.201 81.201 47 82.68 47 Z" style="stroke:none;fill:#FFFFFF;stroke-miterlimit:10;"/></g><path d="M 0 31 L 350 31 L 350 516 C 350 523.727 343.727 530 336 530 L 14 530 C 6.273 530 0 523.727 0 516 L 0 31 Z" style="stroke:none;fill:#202734;stroke-miterlimit:10;"/><g><path d="M 26.501 214 L 149.499 214 C 150.879 214 152 215.121 152 216.501 L 152 219.499 C 152 220.879 150.879 222 149.499 222 L 26.501 222 C 25.121 222 24 220.879 24 219.499 L 24 216.501 C 24 215.121 25.121 214 26.501 214 Z" style="stroke:none;fill:#FFFFFF;stroke-miterlimit:10;"/><path d="M 163.726 214 L 195.149 214 C 195.86 214 196.437 214.578 196.437 215.289 L 196.437 220.711 C 196.437 221.422 195.86 222 195.149 222 L 163.726 222 C 163.015 222 162.437 221.422 162.437 220.711 L 162.437 215.289 C 162.437 214.578 163.015 214 163.726 214 Z" style="stroke:none;fill:#FFFFFF;stroke-miterlimit:10;"/><path d="M 208.61 214 L 266.765 214 C 267.722 214 268.5 214.778 268.5 215.735 L 268.5 220.265 C 268.5 221.222 267.722 222 266.765 222 L 208.61 222 C 207.653 222 206.875 221.222 206.875 220.265 L 206.875 215.735 C 206.875 214.778 207.653 214 208.61 214 Z" style="stroke:none;fill:#A1E56D;stroke-miterlimit:10;"/></g><g><path d="M 26.227 176.5 L 123.273 176.5 C 124.502 176.5 125.5 177.498 125.5 178.727 L 125.5 182.273 C 125.5 183.502 124.502 184.5 123.273 184.5 L 26.227 184.5 C 24.998 184.5 24 183.502 24 182.273 L 24 178.727 C 24 177.498 24.998 176.5 26.227 176.5 Z" style="stroke:none;fill:#FFFFFF;stroke-miterlimit:10;"/><path d="M 141.669 176.5 L 195.331 176.5 C 196.252 176.5 197 177.248 197 178.169 L 197 182.831 C 197 183.752 196.252 184.5 195.331 184.5 L 141.669 184.5 C 140.748 184.5 140 183.752 140 182.831 L 140 178.169 C 140 177.248 140.748 176.5 141.669 176.5 Z" style="stroke:none;fill:#A1E56D;stroke-miterlimit:10;"/><path d="M 213.169 176.5 L 266.831 176.5 C 267.752 176.5 268.5 177.248 268.5 178.169 L 268.5 182.831 C 268.5 183.752 267.752 184.5 266.831 184.5 L 213.169 184.5 C 212.248 184.5 211.5 183.752 211.5 182.831 L 211.5 178.169 C 211.5 177.248 212.248 176.5 213.169 176.5 Z" style="stroke:none;fill:#0091E0;stroke-miterlimit:10;"/></g><g><path d="M 25.669 195.25 L 79.331 195.25 C 80.252 195.25 81 195.998 81 196.919 L 81 201.581 C 81 202.502 80.252 203.25 79.331 203.25 L 25.669 203.25 C 24.748 203.25 24 202.502 24 201.581 L 24 196.919 C 24 195.998 24.748 195.25 25.669 195.25 Z" style="stroke:none;fill:#0091E0;stroke-miterlimit:10;"/><path d="M 94.981 195.25 L 148.644 195.25 C 149.565 195.25 150.312 195.998 150.312 196.919 L 150.312 201.581 C 150.312 202.502 149.565 203.25 148.644 203.25 L 94.981 203.25 C 94.06 203.25 93.312 202.502 93.312 201.581 L 93.312 196.919 C 93.312 195.998 94.06 195.25 94.981 195.25 Z" style="stroke:none;fill:#FFFFFF;stroke-miterlimit:10;"/><path d="M 164.294 195.25 L 217.956 195.25 C 218.877 195.25 219.625 195.998 219.625 196.919 L 219.625 201.581 C 219.625 202.502 218.877 203.25 217.956 203.25 L 164.294 203.25 C 163.373 203.25 162.625 202.502 162.625 201.581 L 162.625 196.919 C 162.625 195.998 163.373 195.25 164.294 195.25 Z" style="stroke:none;fill:#FFFFFF;stroke-miterlimit:10;"/></g><g><path d="M 26.68 64 L 168.32 64 C 169.799 64 171 65.201 171 66.68 L 171 69.32 C 171 70.799 169.799 72 168.32 72 L 26.68 72 C 25.201 72 24 70.799 24 69.32 L 24 66.68 C 24 65.201 25.201 64 26.68 64 Z" style="stroke:none;fill:#FFFFFF;stroke-miterlimit:10;"/><path d="M 183.79 64 L 310.71 64 C 312.112 64 313.25 65.138 313.25 66.54 L 313.25 69.46 C 313.25 70.862 312.112 72 310.71 72 L 183.79 72 C 182.388 72 181.25 70.862 181.25 69.46 L 181.25 66.54 C 181.25 65.138 182.388 64 183.79 64 Z" style="stroke:none;fill:#FFFFFF;stroke-miterlimit:10;"/></g><g><path d="M 108.49 157.75 L 285.51 157.75 C 287.16 157.75 288.5 159.09 288.5 160.74 L 288.5 162.76 C 288.5 164.41 287.16 165.75 285.51 165.75 L 108.49 165.75 C 106.84 165.75 105.5 164.41 105.5 162.76 L 105.5 160.74 C 105.5 159.09 106.84 157.75 108.49 157.75 Z" style="stroke:none;fill:#FFFFFF;stroke-miterlimit:10;"/><path d="M 27.04 157.75 L 90.96 157.75 C 92.638 157.75 94 159.112 94 160.79 L 94 162.71 C 94 164.388 92.638 165.75 90.96 165.75 L 27.04 165.75 C 25.362 165.75 24 164.388 24 162.71 L 24 160.79 C 24 159.112 25.362 157.75 27.04 157.75 Z" style="stroke:none;fill:#FF8717;stroke-miterlimit:10;"/></g><g><path d="M 27.04 101.5 L 90.96 101.5 C 92.638 101.5 94 102.862 94 104.54 L 94 106.46 C 94 108.138 92.638 109.5 90.96 109.5 L 27.04 109.5 C 25.362 109.5 24 108.138 24 106.46 L 24 104.54 C 24 102.862 25.362 101.5 27.04 101.5 Z" style="stroke:none;fill:#FF8717;stroke-miterlimit:10;"/><path d="M 108.478 101.5 L 184.022 101.5 C 185.666 101.5 187 102.834 187 104.478 L 187 106.522 C 187 108.166 185.666 109.5 184.022 109.5 L 108.478 109.5 C 106.834 109.5 105.5 108.166 105.5 106.522 L 105.5 104.478 C 105.5 102.834 106.834 101.5 108.478 101.5 Z" style="stroke:none;fill:#FFFFFF;stroke-miterlimit:10;"/></g><g><path d="M 26.99 82.75 L 204.01 82.75 C 205.66 82.75 207 84.09 207 85.74 L 207 87.76 C 207 89.41 205.66 90.75 204.01 90.75 L 26.99 90.75 C 25.34 90.75 24 89.41 24 87.76 L 24 85.74 C 24 84.09 25.34 82.75 26.99 82.75 Z" style="stroke:none;fill:#FFFFFF;stroke-miterlimit:10;"/><path d="M 221.978 82.75 L 297.522 82.75 C 299.166 82.75 300.5 84.084 300.5 85.728 L 300.5 87.772 C 300.5 89.416 299.166 90.75 297.522 90.75 L 221.978 90.75 C 220.334 90.75 219 89.416 219 87.772 L 219 85.728 C 219 84.084 220.334 82.75 221.978 82.75 Z" style="stroke:none;fill:#A1E56D;stroke-miterlimit:10;"/></g><g><path d="M 120.04 139 L 183.96 139 C 185.638 139 187 140.362 187 142.04 L 187 143.96 C 187 145.638 185.638 147 183.96 147 L 120.04 147 C 118.362 147 117 145.638 117 143.96 L 117 142.04 C 117 140.362 118.362 139 120.04 139 Z" style="stroke:none;fill:#FF8717;stroke-miterlimit:10;"/><path d="M 26.978 139 L 102.522 139 C 104.166 139 105.5 140.334 105.5 141.978 L 105.5 144.022 C 105.5 145.666 104.166 147 102.522 147 L 26.978 147 C 25.334 147 24 145.666 24 144.022 L 24 141.978 C 24 140.334 25.334 139 26.978 139 Z" style="stroke:none;fill:#FFFFFF;stroke-miterlimit:10;"/></g><g><path d="M 25.308 120.25 L 57.692 120.25 C 58.414 120.25 59 120.836 59 121.558 L 59 126.942 C 59 127.664 58.414 128.25 57.692 128.25 L 25.308 128.25 C 24.586 128.25 24 127.664 24 126.942 L 24 121.558 C 24 120.836 24.586 120.25 25.308 120.25 Z" style="stroke:none;fill:#FFFFFF;stroke-miterlimit:10;"/><path d="M 73.308 120.25 L 105.692 120.25 C 106.414 120.25 107 120.836 107 121.558 L 107 126.942 C 107 127.664 106.414 128.25 105.692 128.25 L 73.308 128.25 C 72.586 128.25 72 127.664 72 126.942 L 72 121.558 C 72 120.836 72.586 120.25 73.308 120.25 Z" style="stroke:none;fill:#0091E0;stroke-miterlimit:10;"/><path d="M 122.06 120.25 L 204.815 120.25 C 205.952 120.25 206.875 121.173 206.875 122.31 L 206.875 126.19 C 206.875 127.327 205.952 128.25 204.815 128.25 L 122.06 128.25 C 120.923 128.25 120 127.327 120 126.19 L 120 122.31 C 120 121.173 120.923 120.25 122.06 120.25 Z" style="stroke:none;fill:#FFFFFF;stroke-miterlimit:10;"/></g></g><g><g><circle vector-effect="non-scaling-stroke" cx="425.3262779762222" cy="275.38109333140596" r="23.758250930889176" fill="rgb(33,131,128)" fill-opacity="0.5"/><circle vector-effect="non-scaling-stroke" cx="525.138285135384" cy="275.38109333140596" r="23.758250930889176" fill="rgb(33,131,128)" fill-opacity="0.5"/><circle vector-effect="non-scaling-stroke" cx="624.9502922945456" cy="275.38109333140585" r="23.758250930889176" fill="rgb(33,131,128)" fill-opacity="0.5"/><g><g style="mix-blend-mode:normal;" opacity="0.39"><path d="M 403.694 306.67 L 446.959 306.67 C 447.505 306.67 447.948 307.114 447.948 307.66 L 447.948 311.621 C 447.948 312.167 447.505 312.61 446.959 312.61 L 403.694 312.61 C 403.148 312.61 402.705 312.167 402.705 311.621 L 402.705 307.66 C 402.705 307.114 403.148 306.67 403.694 306.67 Z" style="stroke:none;fill:#575757;stroke-miterlimit:10;"/></g><g><g style="mix-blend-mode:normal;" opacity="0.2"><path d="M 397.212 320.141 L 453.441 320.141 C 453.905 320.141 454.283 320.519 454.283 320.983 L 454.283 322.418 C 454.283 322.883 453.905 323.261 453.441 323.261 L 397.212 323.261 C 396.747 323.261 396.37 322.883 396.37 322.418 L 396.37 320.983 C 396.37 320.519 396.747 320.141 397.212 320.141 Z" style="stroke:none;fill:#575757;stroke-miterlimit:10;"/></g><g style="mix-blend-mode:normal;" opacity="0.2"><path d="M 397.134 326.082 L 453.519 326.082 C 453.94 326.082 454.283 326.424 454.283 326.846 L 454.283 328.437 C 454.283 328.859 453.94 329.202 453.519 329.202 L 397.134 329.202 C 396.712 329.202 396.37 328.859 396.37 328.437 L 396.37 326.846 C 396.37 326.424 396.712 326.082 397.134 326.082 Z" style="stroke:none;fill:#575757;stroke-miterlimit:10;"/></g><g style="mix-blend-mode:normal;" opacity="0.2"><path d="M 397.43 332.023 L 453.222 332.023 C 453.808 332.023 454.283 332.498 454.283 333.084 L 454.283 334.082 C 454.283 334.667 453.808 335.143 453.222 335.143 L 397.43 335.143 C 396.845 335.143 396.37 334.667 396.37 334.082 L 396.37 333.084 C 396.37 332.498 396.845 332.023 397.43 332.023 Z" style="stroke:none;fill:#575757;stroke-miterlimit:10;"/></g></g></g><g><g style="mix-blend-mode:normal;" opacity="0.39"><path d="M 503.506 306.67 L 546.771 306.67 C 547.317 306.67 547.76 307.114 547.76 307.66 L 547.76 311.621 C 547.76 312.167 547.317 312.61 546.771 312.61 L 503.506 312.61 C 502.96 312.61 502.517 312.167 502.517 311.621 L 502.517 307.66 C 502.517 307.114 502.96 306.67 503.506 306.67 Z" style="stroke:none;fill:#575757;stroke-miterlimit:10;"/></g><g><g style="mix-blend-mode:normal;" opacity="0.2"><path d="M 497.024 320.141 L 553.253 320.141 C 553.717 320.141 554.095 320.519 554.095 320.983 L 554.095 322.418 C 554.095 322.883 553.717 323.261 553.253 323.261 L 497.024 323.261 C 496.559 323.261 496.182 322.883 496.182 322.418 L 496.182 320.983 C 496.182 320.519 496.559 320.141 497.024 320.141 Z" style="stroke:none;fill:#575757;stroke-miterlimit:10;"/></g><g style="mix-blend-mode:normal;" opacity="0.2"><path d="M 496.946 326.082 L 553.331 326.082 C 553.752 326.082 554.095 326.424 554.095 326.846 L 554.095 328.437 C 554.095 328.859 553.752 329.202 553.331 329.202 L 496.946 329.202 C 496.524 329.202 496.182 328.859 496.182 328.437 L 496.182 326.846 C 496.182 326.424 496.524 326.082 496.946 326.082 Z" style="stroke:none;fill:#575757;stroke-miterlimit:10;"/></g><g style="mix-blend-mode:normal;" opacity="0.2"><path d="M 497.242 332.023 L 553.034 332.023 C 553.62 332.023 554.095 332.498 554.095 333.084 L 554.095 334.082 C 554.095 334.667 553.62 335.143 553.034 335.143 L 497.242 335.143 C 496.657 335.143 496.182 334.667 496.182 334.082 L 496.182 333.084 C 496.182 332.498 496.657 332.023 497.242 332.023 Z" style="stroke:none;fill:#575757;stroke-miterlimit:10;"/></g></g></g><g><g style="mix-blend-mode:normal;" opacity="0.39"><path d="M 603.318 306.67 L 646.583 306.67 C 647.129 306.67 647.572 307.114 647.572 307.66 L 647.572 311.621 C 647.572 312.167 647.129 312.61 646.583 312.61 L 603.318 312.61 C 602.772 312.61 602.329 312.167 602.329 311.621 L 602.329 307.66 C 602.329 307.114 602.772 306.67 603.318 306.67 Z" style="stroke:none;fill:#575757;stroke-miterlimit:10;"/></g></g></g><rect x="350.011" y="68" width="350.254" height="28.286" transform="matrix(1,0,0,1,0,0)" fill="rgb(235,235,235)"/><g><path d="M 387.836 75.187 L 435.226 75.187 C 436.224 75.187 437.035 75.998 437.035 76.996 L 437.035 87.29 C 437.035 88.288 436.224 89.098 435.226 89.098 L 387.836 89.098 C 386.838 89.098 386.027 88.288 386.027 87.29 L 386.027 76.996 C 386.027 75.998 386.838 75.187 387.836 75.187 Z" style="stroke:none;fill:#C8C8C8;stroke-miterlimit:10;"/><path d="M 627.787 78.665 L 663.152 78.665 C 663.757 78.665 664.249 79.157 664.249 79.762 L 664.249 84.523 C 664.249 85.129 663.757 85.621 663.152 85.621 L 627.787 85.621 C 627.181 85.621 626.689 85.129 626.689 84.523 L 626.689 79.762 C 626.689 79.157 627.181 78.665 627.787 78.665 Z" style="stroke:none;fill:#C8C8C8;stroke-miterlimit:10;"/><path d="M 580.953 78.665 L 616.318 78.665 C 616.923 78.665 617.415 79.157 617.415 79.762 L 617.415 84.523 C 617.415 85.129 616.923 85.621 616.318 85.621 L 580.953 85.621 C 580.347 85.621 579.855 85.129 579.855 84.523 L 579.855 79.762 C 579.855 79.157 580.347 78.665 580.953 78.665 Z" style="stroke:none;fill:#C8C8C8;stroke-miterlimit:10;"/><path d="M 534.119 78.665 L 569.484 78.665 C 570.089 78.665 570.581 79.157 570.581 79.762 L 570.581 84.523 C 570.581 85.129 570.089 85.621 569.484 85.621 L 534.119 85.621 C 533.513 85.621 533.021 85.129 533.021 84.523 L 533.021 79.762 C 533.021 79.157 533.513 78.665 534.119 78.665 Z" style="stroke:none;fill:#C8C8C8;stroke-miterlimit:10;"/></g><g><g><path d="M 387.663 142.884 L 478.523 142.884 C 479.426 142.884 480.159 143.617 480.159 144.52 L 480.159 160.255 C 480.159 161.158 479.426 161.891 478.523 161.891 L 387.663 161.891 C 386.76 161.891 386.027 161.158 386.027 160.255 L 386.027 144.52 C 386.027 143.617 386.76 142.884 387.663 142.884 Z" style="stroke:none;fill:#218380;stroke-miterlimit:10;"/><g><g style="mix-blend-mode:normal;" opacity="0.2"><path d="M 387.72 175.111 L 516.787 175.111 C 517.721 175.111 518.48 175.87 518.48 176.804 L 518.48 179.358 C 518.48 180.292 517.721 181.051 516.787 181.051 L 387.72 181.051 C 386.786 181.051 386.027 180.292 386.027 179.358 L 386.027 176.804 C 386.027 175.87 386.786 175.111 387.72 175.111 Z" style="stroke:none;fill:#575757;stroke-miterlimit:10;"/></g><g style="mix-blend-mode:normal;" opacity="0.2"><path d="M 387.72 189.96 L 516.787 189.96 C 517.721 189.96 518.48 190.719 518.48 191.653 L 518.48 194.207 C 518.48 195.141 517.721 195.9 516.787 195.9 L 387.72 195.9 C 386.786 195.9 386.027 195.141 386.027 194.207 L 386.027 191.653 C 386.027 190.719 386.786 189.96 387.72 189.96 Z" style="stroke:none;fill:#575757;stroke-miterlimit:10;"/></g><g style="mix-blend-mode:normal;" opacity="0.2"><path d="M 387.72 204.215 L 493.029 204.215 C 493.963 204.215 494.721 204.974 494.721 205.908 L 494.721 208.462 C 494.721 209.396 493.963 210.155 493.029 210.155 L 387.72 210.155 C 386.786 210.155 386.027 209.396 386.027 208.462 L 386.027 205.908 C 386.027 204.974 386.786 204.215 387.72 204.215 Z" style="stroke:none;fill:#575757;stroke-miterlimit:10;"/></g></g></g><g><rect x="528.848" y="132.864" width="135.422" height="87.312" transform="matrix(1,0,0,1,0,0)" fill="rgb(235,235,235)"/><circle vector-effect="non-scaling-stroke" cx="596.5589219249971" cy="176.51947503367433" r="22.570338384344723" fill="rgb(255,255,255)"/><path d=" M 607.768 178.363 L 600.123 182.777 L 592.477 187.192 C 590.714 188.209 589.283 187.383 589.283 185.348 L 589.283 176.519 L 589.283 167.691 C 589.283 165.656 590.714 164.83 592.477 165.847 L 600.123 170.261 L 607.768 174.676 C 609.531 175.693 609.531 177.346 607.768 178.363 Z " fill="rgb(33,131,128)"/></g></g></g><g><g><path d="M 473 402.602 L 227 402.602 L 227 388 C 227 380.273 233.273 374 241 374 L 459 374 C 466.727 374 473 380.273 473 388 L 473 402.602 Z" style="stroke:none;fill:#444E50;stroke-miterlimit:10;"/><g><circle vector-effect="non-scaling-stroke" cx="243.14622641509303" cy="388.30094339622343" r="6.9198113207547465" fill="rgb(243,94,106)"/><circle vector-effect="non-scaling-stroke" cx="264.36698113207456" cy="388.30094339622343" r="6.919811320754775" fill="rgb(241,219,94)"/><circle vector-effect="non-scaling-stroke" cx="285.5877358490556" cy="388.30094339622343" r="6.919811320754775" fill="rgb(121,189,92)"/></g></g><g><path d="M 227 402 L 473 402 L 473 486 C 473 493.727 466.727 500 459 500 L 241 500 C 233.273 500 227 493.727 227 486 L 227 402 Z" style="stroke:none;fill:#000000;stroke-miterlimit:10;"/><g><g><path d="M 239.6 413.301 L 281.4 413.301 C 282.835 413.301 284 414.466 284 415.901 L 284 418.701 C 284 420.136 282.835 421.301 281.4 421.301 L 239.6 421.301 C 238.165 421.301 237 420.136 237 418.701 L 237 415.901 C 237 414.466 238.165 413.301 239.6 413.301 Z" style="stroke:none;fill:#B7B7B7;stroke-miterlimit:10;"/><path d="M 295.68 413.301 L 437.32 413.301 C 438.799 413.301 440 414.502 440 415.981 L 440 418.621 C 440 420.1 438.799 421.301 437.32 421.301 L 295.68 421.301 C 294.201 421.301 293 420.1 293 418.621 L 293 415.981 C 293 414.502 294.201 413.301 295.68 413.301 Z" style="stroke:none;fill:#FFFFFF;stroke-miterlimit:10;"/></g><path d="M 239.68 430.301 L 381.32 430.301 C 382.799 430.301 384 431.502 384 432.981 L 384 435.621 C 384 437.1 382.799 438.301 381.32 438.301 L 239.68 438.301 C 238.201 438.301 237 437.1 237 435.621 L 237 432.981 C 237 431.502 238.201 430.301 239.68 430.301 Z" style="stroke:none;fill:#FFFFFF;stroke-miterlimit:10;"/><path d="M 239.99 447.301 L 417.01 447.301 C 418.66 447.301 420 448.641 420 450.291 L 420 452.311 C 420 453.961 418.66 455.301 417.01 455.301 L 239.99 455.301 C 238.34 455.301 237 453.961 237 452.311 L 237 450.291 C 237 448.641 238.34 447.301 239.99 447.301 Z" style="stroke:none;fill:#FFFFFF;stroke-miterlimit:10;"/><path d="M 240.04 464.301 L 303.96 464.301 C 305.638 464.301 307 465.663 307 467.341 L 307 469.261 C 307 470.939 305.638 472.301 303.96 472.301 L 240.04 472.301 C 238.362 472.301 237 470.939 237 469.261 L 237 467.341 C 237 465.663 238.362 464.301 240.04 464.301 Z" style="stroke:none;fill:#00B749;stroke-miterlimit:10;"/><path d="M 321.478 464.301 L 397.022 464.301 C 398.666 464.301 400 465.635 400 467.279 L 400 469.323 C 400 470.967 398.666 472.301 397.022 472.301 L 321.478 472.301 C 319.834 472.301 318.5 470.967 318.5 469.323 L 318.5 467.279 C 318.5 465.635 319.834 464.301 321.478 464.301 Z" style="stroke:none;fill:#FFFFFF;stroke-miterlimit:10;"/><path d="M 239.822 481.301 L 397.178 481.301 C 398.735 481.301 400 482.565 400 484.123 L 400 486.479 C 400 488.036 398.735 489.301 397.178 489.301 L 239.822 489.301 C 238.265 489.301 237 488.036 237 486.479 L 237 484.123 C 237 482.565 238.265 481.301 239.822 481.301 Z" style="stroke:none;fill:#FFFFFF;stroke-miterlimit:10;"/></g></g></g></g></svg>