<?xml version="1.0" encoding="UTF-8" standalone="no"?><!-- Generator: Gravit.io --><svg xmlns="http://www.w3.org/2000/svg" xmlns:xlink="http://www.w3.org/1999/xlink" style="isolation:isolate" viewBox="0 0 1440 633" width="1440pt" height="633pt"><defs><clipPath id="_clipPath_XmrRjTXs5NouyXTvJTCflHyGrbfcj1yA"><rect width="1440" height="633"/></clipPath></defs><g clip-path="url(#_clipPath_XmrRjTXs5NouyXTvJTCflHyGrbfcj1yA)"><rect width="1440" height="633" style="fill:rgb(234,76,109)"/><g><g style="mix-blend-mode:normal;" opacity="0.2"><path d="M 755.475 314.379 L 653.844 332.304 C 653.053 332.444 652.297 331.915 652.157 331.123 L 635.808 238.373 C 635.669 237.582 636.198 236.826 636.989 236.686 L 738.62 218.76 C 739.412 218.621 740.167 219.15 740.307 219.941 L 756.656 312.692 C 756.796 313.483 756.266 314.239 755.475 314.379 Z" style="stroke:none;fill:#000000;stroke-miterlimit:10;"/></g><g style="mix-blend-mode:normal;" opacity="0.2"><path d="M 1306.296 473.168 L 1204.666 491.094 C 1203.874 491.234 1203.118 490.705 1202.979 489.913 L 1186.63 397.163 C 1186.49 396.372 1187.02 395.616 1187.811 395.476 L 1289.442 377.55 C 1290.233 377.411 1290.989 377.94 1291.129 378.731 L 1307.478 471.481 C 1307.617 472.273 1307.088 473.029 1306.296 473.168 Z" style="stroke:none;fill:#000000;stroke-miterlimit:10;"/></g><g style="mix-blend-mode:normal;" opacity="0.2"><path d="M 252.189 407.963 L 150.558 425.889 C 149.767 426.028 149.011 425.499 148.871 424.708 L 132.522 331.957 C 132.383 331.166 132.912 330.41 133.704 330.27 L 235.334 312.345 C 236.126 312.205 236.882 312.734 237.021 313.526 L 253.37 406.276 C 253.51 407.067 252.98 407.823 252.189 407.963 Z" style="stroke:none;fill:#000000;stroke-miterlimit:10;"/></g><g style="mix-blend-mode:normal;" opacity="0.2"><path d="M 429.142 138.141 L 327.511 156.067 C 326.72 156.206 325.964 155.677 325.824 154.885 L 309.475 62.135 C 309.335 61.344 309.865 60.588 310.656 60.448 L 412.287 42.522 C 413.078 42.383 413.834 42.912 413.974 43.703 L 430.323 136.454 C 430.462 137.245 429.933 138.001 429.142 138.141 Z" style="stroke:none;fill:#000000;stroke-miterlimit:10;"/></g><g style="mix-blend-mode:normal;" opacity="0.2"><path d="M 876.367 566.552 L 774.737 584.478 C 773.945 584.617 773.189 584.088 773.05 583.297 L 756.701 490.546 C 756.561 489.755 757.09 488.999 757.882 488.859 L 859.513 470.933 C 860.304 470.794 861.06 471.323 861.199 472.115 L 877.549 564.865 C 877.688 565.656 877.159 566.412 876.367 566.552 Z" style="stroke:none;fill:#000000;stroke-miterlimit:10;"/></g><g style="mix-blend-mode:normal;" opacity="0.2"><path d="M 1139.367 176.935 L 1037.737 194.861 C 1036.945 195.001 1036.189 194.471 1036.05 193.68 L 1019.701 100.93 C 1019.561 100.138 1020.091 99.382 1020.882 99.243 L 1122.513 81.317 C 1123.304 81.177 1124.06 81.706 1124.2 82.498 L 1140.549 175.248 C 1140.688 176.04 1140.159 176.795 1139.367 176.935 Z" style="stroke:none;fill:#000000;stroke-miterlimit:10;"/></g></g></g></svg>