<?xml version="1.0" standalone="no"?>
<!DOCTYPE svg PUBLIC "-//W3C//DTD SVG 20010904//EN"
 "http://www.w3.org/TR/2001/REC-SVG-20010904/DTD/svg10.dtd">
<svg version="1.0" xmlns="http://www.w3.org/2000/svg"
 width="350.000000pt" height="350.000000pt" viewBox="0 0 350.000000 350.000000"
 preserveAspectRatio="xMidYMid meet">
<metadata>
Created by potrace 1.11, written by Peter Selinger 2001-2013
</metadata>
<g transform="translate(0.000000,350.000000) scale(0.100000,-0.100000)"
fill="#000000" stroke="none">
<path d="M0 1764 l0 -1736 142 7 c148 7 163 8 263 19 67 8 72 9 205 31 773
129 1541 571 2045 1180 28 33 52 62 55 65 3 3 38 48 76 100 291 392 489 821
599 1294 25 107 47 238 61 361 3 33 8 63 10 66 2 3 6 83 10 178 l7 171 -1737
0 -1736 0 0 -1736z"/>
</g>
</svg>
